<svg width="40" height="40" viewBox="0 0 40 40" fill="none" xmlns="http://www.w3.org/2000/svg">
<rect width="40" height="40" rx="10" fill="#FF3232"/>
<path d="M28.4705 13.4778C28.7964 13.7966 28.9866 14.2363 28.9993 14.7002C29.012 15.164 28.8461 15.6141 28.5382 15.9515L18.953 26.4527C18.7976 26.6226 18.611 26.7585 18.404 26.8525C18.197 26.9465 17.9739 26.9966 17.7479 26.9998C17.5219 27.0031 17.2975 26.9595 17.0881 26.8715C16.8786 26.7835 16.6884 26.653 16.5285 26.4877L11.454 21.2371C11.1552 20.9053 10.9925 20.4665 11.0003 20.013C11.008 19.5596 11.1855 19.127 11.4954 18.8063C11.8053 18.4857 12.2235 18.302 12.6617 18.294C13.0999 18.286 13.524 18.4543 13.8446 18.7634L17.69 22.7399L26.0799 13.5478C26.388 13.2106 26.8129 13.0138 27.2612 13.0007C27.7095 12.9876 28.1445 13.1592 28.4705 13.4778Z" fill="#F8F8F8"/>
</svg>
