<svg width="21" height="22" viewBox="0 0 21 22" fill="none" xmlns="http://www.w3.org/2000/svg">
<circle cx="10.5" cy="11" r="10.5" fill="#5C6CFC"/>
<path d="M13.8134 8.56136C13.8717 8.50489 13.9183 8.43733 13.9503 8.36262C13.9824 8.28791 13.9992 8.20756 14 8.12623C14.0007 8.04491 13.9853 7.96426 13.9546 7.88897C13.924 7.81369 13.8787 7.74529 13.8214 7.68776C13.7641 7.63022 13.6959 7.58471 13.6209 7.55388C13.5459 7.52305 13.4655 7.50752 13.3844 7.50819C13.3034 7.50885 13.2233 7.52571 13.1488 7.55777C13.0742 7.58984 13.0069 7.63646 12.9505 7.69493L10.5035 10.1489L8.05722 7.69493C8.00133 7.63476 7.93392 7.5865 7.85903 7.55302C7.78414 7.51955 7.70329 7.50155 7.62131 7.5001C7.53933 7.49864 7.45791 7.51377 7.38188 7.54458C7.30586 7.57538 7.2368 7.62123 7.17882 7.67939C7.12085 7.73754 7.07514 7.80682 7.04444 7.88308C7.01373 7.95934 6.99865 8.04103 7.0001 8.12326C7.00154 8.2055 7.01948 8.2866 7.05285 8.36173C7.08622 8.43685 7.13434 8.50447 7.19432 8.56054L9.63893 11.0153L7.19269 13.4692C7.08485 13.5853 7.02614 13.7389 7.02893 13.8975C7.03172 14.0562 7.09579 14.2076 7.20765 14.3198C7.31952 14.432 7.47043 14.4963 7.6286 14.4991C7.78677 14.5019 7.93985 14.443 8.05559 14.3348L10.5035 11.8809L12.9497 14.3356C13.0654 14.4438 13.2185 14.5027 13.3767 14.4999C13.5349 14.4971 13.6858 14.4328 13.7976 14.3206C13.9095 14.2084 13.9736 14.057 13.9764 13.8983C13.9791 13.7397 13.9204 13.5861 13.8126 13.47L11.368 11.0153L13.8134 8.56136Z" fill="white"/>
</svg>
