<svg width="52" height="57" viewBox="0 0 52 57" fill="none" xmlns="http://www.w3.org/2000/svg">
<g id="Frame 427320486">
<g id="Group 267008">
<path id="Vector" d="M26.7646 30.186C26.5282 30.0763 26.2933 29.9554 26.0598 29.8277C26.1874 29.7443 26.3078 29.6648 26.4267 29.588L27.0226 30.0069L26.7646 30.186ZM25.4581 31.0959L24.7215 30.5788C24.9796 30.4539 25.2247 30.3229 25.4581 30.1919C25.6945 30.3229 25.9395 30.4539 26.2005 30.5788L25.4581 31.0959ZM26.982 33.0772L25.4581 34.1604L23.94 33.0772L25.4581 32.0161L26.982 33.0772ZM23.8979 30.0069L24.4924 29.588C24.607 29.6648 24.7288 29.7443 24.8578 29.8277C24.6258 29.9554 24.3924 30.0763 24.1575 30.186L23.8979 30.0069ZM25.4581 28.9043L25.8859 29.2044C25.7525 29.2939 25.6075 29.3834 25.4581 29.4764C25.3117 29.3834 25.1696 29.2939 25.0318 29.2044L25.4581 28.9043ZM31.1029 27.3161C31.0898 27.3001 30.7796 26.9707 30.2358 26.9707C29.9531 26.9707 29.6587 27.0642 29.3644 27.2398C29.3107 27.2679 29.2803 27.3288 29.289 27.3902C29.2933 27.4056 29.5036 28.901 29.3426 29.5432C29.2208 30.0256 28.8235 30.5915 28.1 30.5915C27.9448 30.5915 27.7868 30.5655 27.6186 30.5173L27.6128 30.5146L28.1594 30.1339C28.2 30.1051 28.2247 30.0609 28.2247 30.0096C28.2247 29.9587 28.2 29.914 28.1594 29.8853L27.0748 29.1181C27.417 28.8528 27.6345 28.6644 27.6621 28.639C27.694 28.6104 27.7143 28.5722 27.7143 28.5301C27.7143 28.4888 27.6998 28.4473 27.6679 28.4185L27.4765 28.2175C27.4475 28.1887 27.4083 28.1726 27.3735 28.1726C27.3416 28.1726 27.3083 28.1853 27.2836 28.2047C27.2706 28.2114 26.9849 28.4379 26.5499 28.7474L26.1164 28.4379L27.8172 27.2333L27.9506 27.5814C27.9738 27.6361 28.0188 27.6743 28.0811 27.6776C28.0811 27.6776 28.084 27.6776 28.0869 27.6776C28.1406 27.6776 28.1899 27.6455 28.2145 27.5981L29.0251 26.064C29.0541 26.0125 29.0468 25.9516 29.0164 25.9042C28.9888 25.8627 28.941 25.84 28.8946 25.84C28.8888 25.84 28.883 25.84 28.8728 25.84L27.1966 26.0986C27.1401 26.1053 27.0908 26.1468 27.0748 26.2042C27.0632 26.259 27.0792 26.3191 27.1183 26.3606L27.3924 26.6071L25.4581 27.9742L23.5296 26.6071L23.7993 26.3606C23.8399 26.3191 23.8588 26.259 23.8399 26.2042C23.8283 26.1468 23.7819 26.1053 23.7225 26.0986L22.0448 25.84C22.039 25.84 22.0303 25.84 22.0231 25.84C21.9738 25.84 21.9274 25.8627 21.9027 25.9042C21.8708 25.9516 21.8679 26.0125 21.8926 26.064L22.7002 27.5981C22.7292 27.6455 22.7785 27.6776 22.8307 27.6776C22.8365 27.6776 22.8365 27.6776 22.8409 27.6776C22.896 27.6743 22.9453 27.6361 22.967 27.5814L23.1004 27.2333L24.8027 28.4379L24.3677 28.7474C23.9298 28.4379 23.6442 28.2114 23.6384 28.2047C23.6108 28.1853 23.5789 28.1726 23.5485 28.1726C23.5079 28.1726 23.4702 28.1887 23.4426 28.2175L23.2469 28.4185C23.2193 28.4473 23.2034 28.4888 23.2034 28.5301C23.2063 28.5722 23.2251 28.6104 23.2527 28.639C23.2846 28.6644 23.4977 28.8528 23.8428 29.1181L22.7568 29.8853C22.7191 29.914 22.6944 29.9587 22.6944 30.0096C22.6973 30.0609 22.7191 30.1051 22.7597 30.1339L23.3063 30.5146C23.3063 30.5146 23.302 30.5173 23.2991 30.5173C23.1323 30.5655 22.9743 30.5915 22.822 30.5915C22.0985 30.5915 21.6983 30.0256 21.5765 29.5432C21.4141 28.901 21.6301 27.4056 21.6301 27.3902C21.6388 27.3288 21.6098 27.2679 21.5576 27.2398C21.2589 27.0642 20.9646 26.9707 20.6862 26.9707C20.1425 26.9707 19.8278 27.3001 19.8162 27.3161C19.7916 27.3388 19.7756 27.3735 19.7756 27.4056C19.7669 27.4985 19.6016 29.6587 20.5731 30.7513C20.9341 31.1535 21.4025 31.3579 21.9709 31.3579C22.0709 31.3579 22.1782 31.3552 22.2841 31.3385C22.8365 31.2717 23.3774 31.1214 23.8979 30.9296L24.7998 31.5564L22.8032 32.9462C22.7626 32.9783 22.7379 33.0224 22.7379 33.0739C22.7379 33.1219 22.7597 33.1694 22.8032 33.1982L24.8056 34.6233L23.0975 35.8408L22.967 35.4993C22.9453 35.448 22.896 35.4092 22.8409 35.4065C22.8365 35.4032 22.8365 35.4032 22.8307 35.4032C22.7785 35.4032 22.7292 35.4345 22.7002 35.4833L21.8926 37.0195C21.8679 37.0676 21.8708 37.1317 21.9027 37.1759C21.9274 37.2172 21.9738 37.24 22.0231 37.24C22.0303 37.24 22.039 37.24 22.0448 37.24L23.7225 36.9847C23.7819 36.9748 23.8283 36.9333 23.8399 36.8791C23.8588 36.8217 23.8399 36.7609 23.7993 36.7195L23.5224 36.4669L25.4581 35.0897L27.3953 36.4669L27.1183 36.7195C27.0748 36.7609 27.0603 36.8217 27.0748 36.8791C27.0908 36.9333 27.1372 36.9748 27.1966 36.9847L28.8728 37.24C28.883 37.24 28.8888 37.24 28.8946 37.24C28.941 37.24 28.9888 37.2172 29.0164 37.1759C29.0468 37.1317 29.0497 37.0676 29.0251 37.0195L28.2145 35.4833C28.1899 35.4345 28.1406 35.4032 28.0869 35.4032C28.084 35.4032 28.0811 35.4032 28.0811 35.4065C28.0188 35.4092 27.9738 35.448 27.9506 35.4993L27.8172 35.8408L26.1135 34.6233L28.1159 33.1982C28.1565 33.1694 28.1812 33.1219 28.1812 33.0739C28.1812 33.0224 28.1565 32.9783 28.1159 32.9462L26.1193 31.5564L27.0226 30.9296C27.5417 31.1214 28.084 31.2717 28.6336 31.3385C28.7438 31.3552 28.8482 31.3579 28.9482 31.3579C29.5166 31.3579 29.9879 31.1535 30.3446 30.7513C31.3204 29.6587 31.1522 27.4985 31.1435 27.4056C31.1406 27.3735 31.1246 27.3388 31.1029 27.3161Z" fill="#D5D5D5"/>
<path id="Vector_2" d="M32.1289 29.3991C32.1886 29.2803 32.2184 29.0488 32.2184 29.0488L32.1289 29.0199V29.3991Z" fill="#D5D5D5"/>
<path id="Vector_3" d="M30.5061 38.7986C28.8953 41.9395 25.9431 44.4985 25.9091 44.46C25.8736 44.4985 22.9229 41.9395 21.3121 38.7986C19.7013 35.6605 18.6679 30.7306 18.6101 28.3759C18.5539 26.0205 19.0128 25.0121 19.0128 25.0121C19.0128 25.0121 21.0263 24.9009 22.6371 24.3372C24.0037 23.8626 25.4901 22.6599 25.9091 22.3098C26.3236 22.6599 27.8145 23.8626 29.184 24.3372C30.7919 24.9009 32.8054 25.0121 32.8054 25.0121C32.8054 25.0121 33.2643 26.0205 33.2036 28.3759C33.1474 30.7306 32.1139 35.6605 30.5061 38.7986ZM30.6586 49.4797C30.8673 49.8831 30.9888 50.6731 30.3477 50.733C29.9894 49.7912 29.5586 49.2407 29.0256 48.48C28.5311 47.8943 27.9863 47.29 27.5954 46.6278C28.4704 47.6587 30.2278 48.687 30.6586 49.4797ZM27.5954 54.2692C27.7153 53.346 27.4785 51.2841 27.1039 49.8831C26.8477 48.9413 25.995 46.4686 26.3755 45.5842C26.5235 46.7489 26.9869 48.5685 27.6561 50.0621C28.1313 51.1337 28.8287 53.6263 27.5954 54.2692ZM24.7099 49.8831C24.356 51.2841 24.1014 53.346 24.2213 54.2692C22.9865 53.6263 23.6868 51.1337 24.1621 50.0621C24.8283 48.5685 25.2902 46.7489 25.4398 45.5842C25.8232 46.4686 24.9704 48.9413 24.7099 49.8831ZM22.8089 48.48C22.2567 49.2407 21.8258 49.7912 21.4705 50.733C20.8294 50.6731 20.9508 49.8831 21.1596 49.4797C21.5904 48.687 23.3434 47.6587 24.2213 46.6278C23.8319 47.29 23.2871 47.8851 22.8089 48.48ZM16.2206 38.2549C16.2517 38.4613 16.2798 38.5824 16.3686 38.7188C15.2242 38.8972 14.7356 39.3457 14.3211 40.0745C13.7377 41.0582 14.3462 42.3281 14.1819 42.8534C14.0649 43.1815 13.68 43.4963 13.0715 43.21C13.3661 44.5245 15.0021 44.3747 15.4329 43.6427C15.5795 44.2536 15.4329 44.9572 15.1354 45.2241C15.6432 45.2528 16.074 45.0457 16.3405 44.6417C16.3997 44.7628 16.3997 44.9286 16.4293 45.0743C16.7121 44.9286 16.8927 44.7628 17.0097 44.6131C17.0541 44.7595 17.1104 45.103 17.0408 45.3838C16.8231 45.5329 16.5744 45.6699 16.191 45.867C15.5795 46.1665 14.4706 46.5991 13.8295 46.6882C13.3069 46.7776 12.3993 46.478 12.1625 45.7459C11.9522 45.0457 11.3748 44.8234 10.9129 45.2526C10.796 45.1634 10.4688 45.103 10.3326 45.3173C10.3326 45.3173 10.186 44.9858 10.0053 44.8234C10.1267 44.4633 10.035 44.0307 9.70778 43.8843C9.67965 43.1815 9.2488 43.1815 9.09927 42.9425C9.01044 42.7927 9.01045 42.6111 9.2192 42.5824C9.13037 42.4493 8.94974 42.4207 8.92161 42.4207C8.97935 42.1211 8.89052 41.7491 8.49078 41.628L4.96418 34.3306C5.18922 34.0918 5.07227 33.7484 4.81614 33.6265C4.81614 33.6265 4.81614 33.5986 4.81614 33.57C4.83835 33.5121 4.8413 33.4675 4.84722 33.4235C4.94346 33.4076 5.05744 33.3848 5.15812 33.3596C5.85544 33.1939 6.94364 32.1662 7.88229 31.5233C7.55214 31.8667 6.18561 32.8665 5.57711 33.4489C5.00859 34.0153 5.24696 34.5817 5.33876 35.0908L5.472 35.3742C5.9887 35.4062 6.76302 35.7177 7.34339 35.2405C7.52401 35.0621 10.0661 31.8954 10.4051 31.5839C10.2748 31.8667 8.66844 33.8974 7.9415 35.0621C7.40259 35.9408 8.1917 36.523 8.28498 37.0289C8.8609 36.8512 9.65002 37.1946 10.066 36.4945C10.4687 35.8229 11.702 33.4202 12.1625 32.7454C11.9848 33.2704 10.6745 36.0012 10.5857 36.2395C10.2748 37.1659 11.061 37.3444 11.3748 37.9587C11.8501 37.6146 12.7103 37.8821 13.0404 37.0002C13.2462 36.4053 13.7688 34.3306 14.0383 33.7763C14.0072 34.3913 13.8295 35.2119 13.7096 36.1191C13.5882 37.0289 14.438 37.0002 14.8822 37.5255C15.313 37.1661 16.1021 37.2553 16.2206 36.4339C16.3405 35.7018 16.3686 33.9261 16.3686 33.9261C16.49 34.0312 16.5493 34.0599 16.6825 34.181C16.9771 33.8375 17.5901 33.8375 17.7958 33.4202C17.8876 33.4488 17.9158 33.5094 18.0046 33.57C18.6738 34.6867 18.7315 36.8512 17.7958 37.6146C18.0653 37.6146 18.4073 37.5827 18.6131 37.4941C18.1986 38.3434 17.2762 38.6429 16.2206 38.2549ZM5.51937 30.4345C5.36392 30.4984 5.1833 30.5782 5.04117 30.6387C5.04117 30.6261 5.04117 30.6102 5.04117 30.5976C5.18626 30.543 5.36688 30.4891 5.51937 30.4345ZM20.7702 12.0741C22.4373 11.7153 24.131 10.7762 24.8905 9.98753C25.5227 10.0255 26.337 10.0314 26.9558 9.99682C27.7064 10.7922 29.3779 11.7153 31.045 12.0741C30.0782 12.0741 28.3845 11.9855 28.1758 11.7466C28.2365 12.3576 29.529 13.0485 30.3758 13.2388C29.6755 13.3287 29.0256 13.2388 28.4704 12.9879C28.7724 13.4212 29.1115 13.7487 29.6755 13.9423C29.0833 14.6751 27.8649 15.149 26.6568 15.0312C26.9558 15.3907 27.5066 15.6136 27.9863 15.553C26.901 17.2907 26.0956 19.0732 25.9061 21.1384L25.9002 21.1357L25.8958 21.1418C25.7151 19.0732 24.9171 17.2907 23.8349 15.553C24.3235 15.6136 24.8624 15.3907 25.1422 15.0312C23.9237 15.149 22.7482 14.6751 22.1397 13.9423C22.7067 13.7487 23.0458 13.4212 23.3433 12.9879C22.8089 13.2388 22.1397 13.3287 21.4409 13.2388C22.2892 13.0485 23.598 12.3576 23.6543 11.7466C23.4322 11.9855 21.74 12.0741 20.7702 12.0741ZM31.8919 51.5829C32.2664 52.2258 31.7453 52.6871 31.0169 52.6871C31.0169 52.4361 31.0169 52.3464 30.9562 52.0448C31.2967 52.0129 31.692 51.8851 31.8919 51.5829ZM20.8013 52.6871C20.0729 52.6871 19.5517 52.2258 19.9234 51.5829C20.1158 51.8732 20.4993 52.0096 20.8294 52.0448C20.8013 52.3464 20.8013 52.4361 20.8013 52.6871ZM3.93819 30.8804C3.89969 30.8804 3.8612 30.8804 3.81974 30.8804C3.81382 30.871 3.8079 30.861 3.79754 30.8518C3.85232 30.8392 3.91006 30.8391 3.96039 30.8232C3.95595 30.8425 3.94707 30.861 3.93819 30.8804ZM3.0617 32.7454L2.7671 32.5703C2.88554 32.4339 3.00249 32.4339 3.11945 32.5097C3.11945 32.5988 3.11944 32.6881 3.0617 32.7454ZM2.48283 31.4947C2.45322 31.4947 2.45322 31.5233 2.42509 31.552C2.24447 31.5233 2.24446 31.313 2.27703 31.1346C2.36142 31.1346 2.42509 31.106 2.48283 31.0455L2.51096 31.0774L2.42509 31.1346C2.45322 31.2558 2.45322 31.3742 2.48283 31.4947ZM51.6968 23.6716C51.0602 23.287 50.0045 23.1498 48.9326 23.255C50.613 22.6726 51.7575 21.4187 51.8182 20.2986C50.9432 20.047 50.0327 20.1807 49.2465 20.3591C50.0623 19.7474 51.3992 18.628 51.2378 16.9853C50.4517 16.7909 49.0067 17.3447 48.3967 17.6156C50.3302 16.524 51.0291 13.9423 50.0045 12.4794C49.396 12.8382 46.6275 15.6708 46.1804 16.0022C47.6105 14.3596 48.2797 13.1789 48.6662 12.0741C49.1266 10.8687 49.1547 8.76485 47.6713 8.06135C46.971 9.67468 44.5163 13.8059 43.1497 15.5244C43.0002 15.3907 42.8803 15.2095 42.6878 15.181C42.3606 16.2278 41.3938 17.6156 40.5159 18.2838C40.4715 18.1954 40.3827 17.9556 40.2331 17.7015C39.2974 19.1052 36.8723 21.0307 36.0862 22.2113C35.4747 23.0893 35.4747 23.8819 36.3231 24.7033C36.6665 25.0467 37.3195 25.6577 36.7554 26.5076C35.9885 27.6344 34.4443 27.7649 33.6034 27.1027C33.6034 26.9024 33.5974 26.7112 33.5885 26.5329C34.576 26.1475 34.8085 24.7951 34.0786 23.9551C33.9172 24.264 33.6552 24.4896 33.3369 24.6015C33.2525 24.2506 33.1755 24.0797 33.1696 24.063L33.1311 23.9804L33.0452 23.9771C33.0363 23.9737 32.7136 23.9584 32.228 23.9012C32.7757 23.7196 33.1281 23.2104 33.0526 22.5228C32.2057 23.255 31.3559 22.5547 31.162 22.3611C30.629 21.7341 30.4809 21.0307 30.6897 19.9544C30.8674 19.016 31.8341 17.523 32.4722 17.0458C32.564 17.1351 32.7106 17.3135 33.02 17.2848C33.2006 17.2276 33.4997 17.0745 33.7218 16.9853C34.3614 16.7909 34.9862 16.9407 35.3889 17.1956C36.1143 17.6416 36.0551 18.1341 36.0299 18.4941C37.1388 17.8672 36.7554 16.8229 35.3 16.4349C36.2949 16.4349 37.1137 17.3447 37.3195 17.4625C37.8717 17.8672 38.6578 17.7773 39.1168 17.555C39.9992 17.135 40.1754 16.0908 39.9385 15.8811C39.8497 16.2565 39.5669 16.5847 39.0576 16.6451C38.3025 16.7337 37.5696 16.4029 36.9922 16.148C36.5052 15.9417 35.7116 15.7919 35.1801 15.8231C36.175 15.2701 37.7222 15.3308 38.2699 16.18C38.6001 15.9131 38.8074 15.6708 38.8977 15.1203C39.1805 13.6308 38.0197 12.8668 36.7835 12.8668C36.8161 12.508 36.5614 12.329 36.2357 12.4501C36.2357 12.2977 36.1943 12.1799 36.1114 12.1193C36.1395 12.116 36.178 12.1034 36.2031 12.1034C37.4527 12.0175 38.6282 11.6288 39.2663 10.9573C40.3827 9.76057 38.6001 8.23973 39.2382 7.06235C39.8497 7.32923 40.2968 7.67335 41.1392 7.79115C41.228 7.97286 41.305 8.32891 41.3331 8.52259C41.6026 9.85306 40.2968 10.076 40.6358 11.4917C40.7854 12.1353 41.2635 12.3576 41.4249 13.1217C41.4249 13.1217 41.4856 13.6561 41.0222 14.1214C42.0941 14.15 42.6582 13.2388 42.3295 12.3896C42.183 12.0455 41.8084 11.7153 41.8084 11.3147C42.3606 12.0455 42.8522 12.0175 43.699 11.7466C44.0854 11.6288 44.1165 12.1673 43.8767 12.5999C44.457 12.2525 44.6081 11.6861 44.6081 11.4351C44.6081 10.8368 44.1461 10.5533 43.699 10.6744C43.4488 10.703 42.941 11.0465 42.9129 10.5533C42.8077 9.70333 44.1461 9.73258 43.8767 8.36085C43.7301 7.67332 42.9691 7.29796 41.7803 7.15086C41.6633 7.03039 41.3642 6.74686 41.2029 6.50792C40.5499 5.41972 39.8778 5.13686 39.4751 5.35916C38.9998 5.5981 38.7496 5.80841 38.3632 6.0154C38.0494 6.18047 37.7221 6.26964 37.5134 6.50792C36.9923 7.15086 37.4853 8.15055 37.7503 8.76486C37.9309 9.12095 38.3632 9.94226 38.1693 10.5533C37.9605 11.2854 36.7554 11.7466 36.0299 11.897C35.9811 11.897 35.9529 11.9124 35.9056 11.9124V11.6288C36.1143 11.2534 36.2949 10.8082 36.4445 10.4035C36.936 9.08901 36.2032 8.55521 35.1224 8.30031C34.9862 8.21112 34.8366 8.17917 34.659 8.23973H34.6279L34.5997 8.4627L34.4502 8.41811L34.4813 8.15056H34.4176C34.542 8.06136 34.5997 7.91161 34.5997 7.76252C34.5997 7.60013 34.542 7.47901 34.4813 7.39048H34.6279L34.5672 7.32922C34.542 7.26932 34.4813 7.21142 34.3895 7.11958C34.3614 7.09095 34.3332 7.03038 34.3332 7.00177C34.3614 7.03038 34.3895 7.06235 34.4502 7.09097C34.5109 7.15088 34.5998 7.21142 34.6279 7.26932L34.7167 7.32922V6.10725L34.6279 6.18046C34.5998 6.20975 34.5109 6.26966 34.4502 6.33022C34.3895 6.39078 34.3614 6.39078 34.3332 6.41939C34.3332 6.39078 34.3614 6.35884 34.3895 6.29826C34.4813 6.24103 34.542 6.1485 34.5672 6.10725L34.6279 6.0154H33.4109L33.4701 6.10725C33.5278 6.1485 33.6034 6.24103 33.6641 6.29826C33.6922 6.35884 33.7218 6.39078 33.7529 6.41939C33.7218 6.39078 33.664 6.39078 33.633 6.33022C33.5278 6.26966 33.4701 6.20975 33.4109 6.18046L33.3502 6.10725V7.32922L33.4109 7.26932C33.4701 7.21142 33.5278 7.15088 33.633 7.09097C33.664 7.06235 33.7218 7.03038 33.7529 7.00177C33.7218 7.03038 33.6922 7.09095 33.6641 7.11958C33.6034 7.21142 33.5278 7.26932 33.4701 7.32922L33.4109 7.39048H33.6034C33.4997 7.47901 33.4701 7.60013 33.4701 7.76252C33.4701 7.91161 33.5278 8.06136 33.633 8.15056H33.6034L33.633 8.41811L33.4701 8.4627L33.439 8.23973H33.4109C33.2332 8.17917 33.0837 8.21112 32.9638 8.30031C31.8623 8.55521 31.1338 9.08901 31.6254 10.4035C31.7749 10.8082 31.9555 11.2534 32.1776 11.6288V11.8231C31.0731 11.4631 29.0952 10.2544 28.5622 9.52227C28.503 9.44907 28.4585 9.3885 28.4289 9.34457L28.423 9.34725L28.4452 8.55523C28.8287 7.91161 29.1721 7.11959 29.4401 6.39079C30.1389 4.49393 29.1115 3.70454 27.4784 3.37308C27.3141 3.25594 27.1039 3.19541 26.8374 3.28459L26.7811 3.58341L26.4391 3.55478L26.4672 3.16678C26.4065 3.19541 26.3503 3.19538 26.2896 3.19538C26.5235 3.07757 26.6893 2.79071 26.6893 2.4952C26.6893 2.28555 26.5842 2.03064 26.4065 1.91283H26.6893C26.5235 1.76307 26.257 1.44761 26.2008 1.24128C26.4066 1.29852 26.7204 1.58206 26.867 1.73448V0.181016C26.7204 0.299487 26.4066 0.598341 26.2008 0.626961C26.257 0.451916 26.5235 0.149753 26.6893 0H25.1422C25.2621 0.149753 25.5597 0.451916 25.5878 0.626961C25.4072 0.598341 25.1126 0.299487 24.9482 0.181016V1.73448C25.1126 1.58206 25.4072 1.29852 25.5878 1.24128C25.5597 1.44761 25.2621 1.76307 25.1422 1.91283H25.4072C25.231 2.03064 25.1422 2.28555 25.1422 2.4952C25.1422 2.79071 25.2902 3.07757 25.5286 3.19538C25.4679 3.19538 25.4072 3.19541 25.3199 3.16678L25.3509 3.55478L25.0089 3.58341L24.9764 3.28459C24.7099 3.19541 24.5041 3.25594 24.3235 3.37308C22.7067 3.70454 21.6763 4.49393 22.3766 6.39079C22.6149 7.11959 22.9569 7.91161 23.373 8.55523V9.37584C23.3434 9.40447 23.3123 9.46504 23.2545 9.52227C22.7349 10.2544 20.7421 11.4631 19.6406 11.8231V11.6288C19.8627 11.2534 20.0433 10.8082 20.1928 10.4035C20.6843 9.08901 19.9544 8.55521 18.8544 8.30031C18.7315 8.21112 18.5879 8.17917 18.4073 8.23973H18.3792L18.3466 8.4627L18.1986 8.41811L18.2267 8.15056H18.1986C18.2874 8.06136 18.3466 7.91161 18.3466 7.76252C18.3466 7.60013 18.3185 7.47901 18.2267 7.39048H18.4073L18.3466 7.32922C18.2874 7.26932 18.2267 7.21142 18.1689 7.11958C18.1408 7.09095 18.0964 7.03038 18.0653 7.00177C18.0964 7.03038 18.1689 7.06235 18.1986 7.09097C18.2874 7.15088 18.3466 7.21142 18.4073 7.26932L18.468 7.32922V6.10725L18.4073 6.18046C18.3466 6.20975 18.2874 6.26966 18.1986 6.33022C18.1689 6.39078 18.0964 6.39078 18.0653 6.41939C18.0964 6.39078 18.1408 6.35884 18.1689 6.29826C18.2267 6.24103 18.2874 6.1485 18.3466 6.10725L18.4073 6.0154H17.1903L17.248 6.10725C17.2762 6.1485 17.3517 6.24103 17.4124 6.29826C17.4687 6.35884 17.4983 6.39078 17.4983 6.41939C17.4686 6.39078 17.4405 6.39078 17.3828 6.33022C17.3073 6.26966 17.2155 6.20975 17.1903 6.18046L17.0985 6.10725V7.32922L17.1903 7.26932C17.2155 7.21142 17.3073 7.15088 17.3828 7.09097C17.4405 7.06235 17.4686 7.03038 17.4983 7.00177C17.4983 7.03038 17.4687 7.09095 17.4124 7.11958C17.3517 7.21142 17.2762 7.26932 17.248 7.32922L17.1903 7.39048H17.3517C17.2762 7.47901 17.2155 7.60013 17.2155 7.76252C17.2155 7.91161 17.2762 8.06136 17.4124 8.15056H17.3517L17.3828 8.41811L17.2155 8.4627L17.1903 8.23973H17.1592C16.9771 8.17917 16.832 8.21112 16.7121 8.30031C15.6106 8.55521 14.8822 9.08901 15.3737 10.4035C15.5218 10.8082 15.7039 11.2534 15.9245 11.6288V11.9124C15.8771 11.9124 15.8371 11.897 15.8045 11.897C15.0761 11.7466 13.8577 11.2854 13.6489 10.5533C13.455 9.94226 13.8902 9.12095 14.0649 8.76486C14.3462 8.15055 14.8244 7.15086 14.3211 6.50792C14.096 6.26964 13.7688 6.18047 13.455 6.0154C13.0715 5.80841 12.8302 5.5981 12.3431 5.35916C11.9522 5.13686 11.286 5.41972 10.6153 6.50792C10.4688 6.74686 10.1549 7.03039 10.035 7.15086C8.86091 7.29796 8.10288 7.67332 7.9415 8.36085C7.66909 9.73258 9.01044 9.70333 8.92161 10.5533C8.89052 11.0465 8.37233 10.703 8.13249 10.6744C7.66909 10.5533 7.20865 10.8368 7.20865 11.4351C7.20865 11.6861 7.37446 12.2525 7.9415 12.5999C7.70462 12.1673 7.73275 11.6288 8.13249 11.7466C8.97934 12.0175 9.45459 12.0455 10.0053 11.3147C10.0053 11.7153 9.65002 12.0455 9.48864 12.3896C9.15997 13.2388 9.70778 14.15 10.796 14.1214C10.3029 13.6561 10.4051 13.1217 10.4051 13.1217C10.5576 12.3576 11.0328 12.1353 11.1957 11.4917C11.5244 10.076 10.2156 9.85306 10.4969 8.52259C10.5265 8.32891 10.5857 7.97286 10.6746 7.79115C11.5244 7.67335 11.9848 7.32923 12.577 7.06235C13.1885 8.23973 11.4326 9.76057 12.5489 10.9573C13.1885 11.6288 14.3788 12.0175 15.6106 12.1034C15.6373 12.1034 15.6787 12.1193 15.7098 12.1226C15.6239 12.1799 15.5795 12.2977 15.5795 12.4501C15.2567 12.329 15.0021 12.508 15.0465 12.8668C13.7688 12.8668 12.6407 13.6308 12.919 15.1203C13.0078 15.6708 13.2166 15.9131 13.5601 16.18C14.096 15.3308 15.6432 15.2701 16.6514 15.8231C16.1021 15.7919 15.313 15.9417 14.8244 16.148C14.2574 16.4029 13.532 16.7337 12.7739 16.6451C12.2498 16.5847 11.9848 16.2565 11.8797 15.8811C11.6413 16.0908 11.819 17.135 12.7103 17.555C13.1574 17.7773 13.9465 17.8672 14.4958 17.4625C14.7045 17.3447 15.5218 16.4349 16.5211 16.4349C15.0761 16.8229 14.6734 17.8672 15.8045 18.4941C15.7601 18.1341 15.7039 17.6416 16.4293 17.1956C16.832 16.9407 17.4687 16.7909 18.0964 16.9853C18.3185 17.0745 18.6131 17.2276 18.7952 17.2848C19.1046 17.3135 19.2542 17.1351 19.343 17.0458C19.9841 17.523 20.9183 19.016 21.1285 19.9544C21.3506 21.0307 21.1877 21.7341 20.6518 22.3611C20.4741 22.5547 19.6124 23.255 18.7656 22.5228C18.6871 23.207 19.038 23.7169 19.5873 23.9012C19.0957 23.9551 18.7656 23.9737 18.7567 23.9771L18.6708 23.9804L18.6368 24.063C18.6264 24.0797 18.5539 24.2507 18.465 24.5981C18.1571 24.4803 17.8965 24.2607 17.7381 23.9551C17.0097 24.7924 17.2347 26.1355 18.2148 26.5269C18.2045 26.7112 18.1986 26.9089 18.1986 27.1119C17.3576 27.7615 15.8297 27.6277 15.0761 26.5076C14.4958 25.6577 15.1635 25.0467 15.4936 24.7033C16.3405 23.8819 16.3405 23.0893 15.729 22.2113C14.9429 21.0307 12.5178 19.1052 11.5851 17.7015C11.4326 17.9556 11.3437 18.1954 11.3112 18.2838C10.4377 17.6156 9.45461 16.2278 9.13037 15.181C8.94975 15.2095 8.81649 15.3907 8.66844 15.5244C7.31376 13.8059 4.84721 9.67468 4.14989 8.06135C2.67529 8.76485 2.70342 10.8687 3.15498 12.0741C3.55028 13.1789 4.22243 14.3596 5.63337 16.0022C5.18921 15.6708 2.4251 12.8382 1.81365 12.4794C0.789126 13.9423 1.48644 16.524 3.41704 17.6156C2.82483 17.3447 1.36652 16.7909 0.580361 16.9853C0.430829 18.628 1.75293 19.7474 2.57166 20.3591C1.78551 20.1807 0.877948 20.047 0 20.2986C0.0607013 21.4187 1.21699 22.6726 2.85296 23.255C1.81364 23.1498 0.758018 23.287 0.116953 23.6716C0.238356 24.8363 1.54713 25.8393 3.11945 26.0783C2.06384 26.1954 1.12815 26.6607 0.641063 27.3003C1.21698 28.061 2.06385 28.6434 3.36079 28.6147C3.06172 28.7193 2.71971 28.9262 2.42509 29.2098C2.394 29.1805 2.33329 29.152 2.27703 29.152C2.21337 29.1805 2.1882 29.2697 2.21337 29.3303C2.21337 29.3303 2.21337 29.3303 2.21337 29.3749C2.08901 29.4641 2.01943 29.5659 2.00759 29.6743C1.88619 29.8461 1.7633 30.0497 1.6952 30.2248C1.72777 30.2407 1.75293 30.2694 1.7855 30.2853C1.77217 30.3873 1.79439 30.5017 1.8699 30.6135C1.81364 30.6733 1.78551 30.7627 1.75294 30.8518L0.994905 30.5522C0.954931 31.2431 1.10595 31.8129 1.45535 32.1663C1.72777 32.4777 2.03572 32.4339 1.94689 32.5389L2.7671 33.0442C2.91367 33.3596 3.21124 33.3596 3.41704 33.2704C3.41704 33.2704 3.41704 33.2991 3.41704 33.3311C3.41704 33.6585 3.64208 33.9261 3.93819 34.0312C3.88045 34.3021 3.99741 34.4797 4.37198 34.6008L7.4633 42.1211C7.34338 42.4779 7.46331 42.7927 7.73276 42.9106C7.6691 42.9997 7.61283 43.0916 7.61283 43.2699C7.73275 43.1813 7.91042 43.1495 7.99925 43.4037C8.05551 43.5822 7.73274 44.1644 8.22427 44.5532C8.16061 44.8967 8.34124 45.2528 8.69656 45.4058C8.69656 45.5842 8.86092 46.1665 8.89053 46.3729C8.66845 46.6882 8.16061 47.1655 8.22427 47.6874C8.28498 48.0634 8.43008 48.1812 8.72767 48.2697C8.60775 48.9413 8.97935 49.2407 9.54639 49.2727C9.54639 49.7625 10.0054 49.941 10.3029 49.969C10.5857 50.1792 10.7056 50.2684 11.0328 50.4341C10.7352 50.7902 10.944 51.2555 11.4933 51.4052C11.554 51.6116 11.702 51.7932 12.0129 51.8665C12.1936 52.1652 12.5178 52.1652 12.7103 52.076C12.8302 52.0161 13.0404 51.6721 12.8598 51.3726C12.9797 51.2236 12.919 50.94 12.8302 50.7615C13.0078 50.4341 12.8598 50.0302 12.6096 49.9123C12.6407 49.7306 12.5489 49.4478 12.4882 49.2727C12.919 49.0019 13.455 48.6585 13.6489 48.5406C14.7045 47.7798 15.8934 47.105 17.248 47.0158C17.59 46.9844 18.2267 46.9559 18.5879 46.9844C19.1372 47.0443 19.8952 47.2102 20.3394 46.866C20.4741 46.7776 20.5629 46.6278 20.5348 46.478C20.4741 46.1345 20.104 45.835 19.9841 45.5235C19.9515 45.4277 19.8952 45.2907 19.8375 45.1669C20.2239 45.2367 20.5792 45.1795 20.8013 45.0743C21.0397 44.9858 21.6185 44.5532 21.5904 43.9128C21.1285 44.1359 20.0122 44.4346 19.8952 43.2986C19.7738 42.2996 20.6518 41.4497 22.0212 41.8224C22.9569 42.0606 24.3235 44.0594 23.0739 44.9286C22.4654 45.3459 21.5312 45.7459 21.6511 46.8381C22.0508 46.3442 22.5839 46.106 23.2812 46.1665C22.2567 46.9272 21.4705 47.0158 20.3986 47.5981C19.4629 48.1493 18.7656 49.0624 18.0327 49.0911C17.4686 49.1196 17.1592 48.4482 17.707 47.9262C17.1592 47.8085 16.4293 48.2411 16.2206 48.8207C15.9541 49.6129 16.1599 50.1792 16.6514 50.4948C15.9852 50.8508 15.4936 51.5542 15.729 52.5534C15.9541 53.3746 16.7713 53.3746 16.4604 54.4188C16.9209 54.2977 17.2155 53.9856 17.3517 53.5371C17.4124 53.2256 17.4686 52.8974 17.6211 52.7476C17.5575 53.3746 17.9158 54.2977 18.7656 54.7177C19.343 55.0013 20.2535 55.1191 20.9508 54.3903C21.2321 55.211 22.196 55.9111 23.1953 55.8824C23.6543 55.8824 24.1014 55.6847 24.4449 55.4811C24.6817 56.0894 25.2902 56.7038 25.9002 57C26.5235 56.7038 27.135 56.0894 27.3867 55.4811C27.7153 55.6847 28.1758 55.8824 28.6229 55.8824C29.5867 55.9111 30.5979 55.211 30.8673 54.3903C31.5647 55.1191 32.4722 55.0013 33.0526 54.7177C33.9024 54.2977 34.2563 53.3746 34.2 52.7476C34.3614 52.8974 34.4176 53.2256 34.4813 53.5371C34.5997 53.9856 34.8944 54.2977 35.3563 54.4188C35.0469 53.3746 35.8804 53.3746 36.0862 52.5534C36.3231 51.5542 35.833 50.8508 35.1801 50.4948C35.6553 50.1792 35.8804 49.6129 35.5947 48.8207C35.3889 48.2411 34.659 47.8085 34.1082 47.9262C34.659 48.4482 34.3614 49.1196 33.781 49.0911C33.0526 49.0624 32.3553 48.1493 31.4166 47.5981C30.3477 47.0158 29.5586 46.9272 28.534 46.1665C29.2314 46.106 29.7836 46.3442 30.1671 46.8381C30.287 45.7459 29.3528 45.3459 28.7398 44.9286C27.5066 44.0594 28.8612 42.0606 29.8117 41.8224C31.162 41.4497 32.0562 42.2996 31.923 43.2986C31.7749 44.4346 30.6897 44.1359 30.1996 43.9128C30.1996 44.5532 30.7756 44.9858 31.0169 45.0743C31.2967 45.208 31.809 45.278 32.2724 45.081C32.2561 45.1921 32.2368 45.3132 32.2368 45.3459C32.145 46.3157 31.6254 46.4048 31.803 46.8061C32.0562 47.105 33.7218 47.0443 34.1674 47.1369C34.958 47.2414 35.6272 47.5382 36.3838 47.6874C37.2306 47.8663 38.1382 47.8663 38.8977 48.1811C39.3862 48.3908 39.9385 48.7922 40.4137 49.0304C41.1392 49.151 41.0222 49.4478 41.4856 49.4478C41.9017 49.4478 42.0616 49.0911 42.599 48.9413C42.9691 48.8527 43.3851 49.0018 43.7553 48.8814C44.0247 48.8207 44.1461 48.5406 44.3993 48.3908C44.6969 48.2098 45.1129 48.2098 45.3957 47.9549C45.5437 47.8238 45.5719 47.5695 45.5497 47.3918L45.5571 47.4324C46.1241 47.0317 46.5549 46.4494 46.7933 45.7746C46.9414 45.7459 47.0598 45.6127 47.0598 45.4631C47.0598 45.4344 47.0598 45.4058 47.0598 45.4058C47.2078 45.2846 47.2967 45.103 47.2967 44.9286C47.2967 44.7023 47.2078 44.5245 47.0598 44.3747C47.0598 44.3747 47.0598 44.3429 47.0598 44.3142C47.0598 44.1964 46.9991 44.1072 46.9413 44.0307C46.7045 42.7322 45.7214 41.6885 44.457 41.3603C44.457 41.3285 44.457 41.3285 44.457 41.2999H44.4274C44.4274 41.2394 44.3993 41.208 44.3549 41.208C44.1743 41.0297 43.9655 40.7494 43.9388 40.5678C44.1461 40.6283 44.4881 40.9564 44.6658 41.0902V39.3744C44.4881 39.5081 44.1461 39.8363 43.9388 39.8969C43.9655 39.6865 44.2912 39.3138 44.457 39.1647H42.7189C42.8803 39.3138 43.2075 39.6865 43.2356 39.8969C43.0298 39.8363 42.6878 39.5081 42.5102 39.3744V41.0902C42.6878 40.9564 43.0298 40.6283 43.2356 40.5678C43.2075 40.7781 42.8803 41.1501 42.7189 41.2999L42.7796 41.3285C41.4856 41.628 40.4419 42.7035 40.205 44.0307C40.1162 44.1072 40.0554 44.1964 40.0554 44.3142C40.0554 44.3429 40.0554 44.3747 40.0554 44.3747C39.9059 44.5245 39.8171 44.7023 39.8171 44.9286C39.8171 45.103 39.9059 45.2846 40.0554 45.4058C40.0554 45.4058 40.0554 45.4344 40.0554 45.4631C40.0554 45.6567 40.1754 45.7459 40.3219 45.7746C40.3826 45.9403 40.4552 46.106 40.5307 46.2558C40.5307 46.2391 40.5307 46.2391 40.55 46.2238C40.4419 46.7169 39.8497 47.0158 39.7164 47.0158C38.6578 47.1656 37.4853 46.7169 36.4134 46.3157C35.9396 46.1345 35.3 45.9282 34.9861 45.4631C34.7922 45.1255 34.7108 44.9118 34.8085 44.6131C34.9255 44.7628 35.1224 44.9286 35.3889 45.0743C35.417 44.9286 35.417 44.7628 35.4747 44.6417C35.7471 45.0457 36.175 45.2528 36.6947 45.2241C36.3838 44.9572 36.2357 44.2536 36.3838 43.6427C36.8161 44.3747 38.4521 44.5245 38.7496 43.21C38.1382 43.4963 37.7503 43.1815 37.6333 42.8534C37.4527 42.3281 38.0493 41.0582 37.5134 40.0745C37.0811 39.3457 36.594 38.8972 35.4496 38.7188C35.5384 38.5824 35.5665 38.4613 35.5947 38.2549C34.542 38.6429 33.633 38.3434 33.2007 37.4941C33.4109 37.5827 33.7218 37.6146 34.0194 37.6146C33.0837 36.8512 33.1414 34.6867 33.8121 33.57C33.9024 33.5094 33.9305 33.4488 34.0194 33.4202C34.2252 33.8375 34.8366 33.8375 35.1475 34.181C35.2689 34.0599 35.3282 34.0312 35.4496 33.9261C35.4496 33.9261 35.4747 35.7018 35.5947 36.4339C35.7116 37.2553 36.5052 37.1661 36.9049 37.5255C37.3802 37.0002 38.2418 37.0289 38.1086 36.1191C37.9887 35.2119 37.811 34.3913 37.7829 33.7763C38.0494 34.3306 38.569 36.4053 38.7778 37.0002C39.1168 37.8821 39.9666 37.6146 40.4419 37.9587C40.7557 37.3444 41.5419 37.1659 41.228 36.2395C41.1392 36.0012 39.8497 33.2704 39.6557 32.7454C40.1162 33.4202 41.3642 35.8229 41.7521 36.4945C42.183 37.1946 42.9691 36.8512 43.5332 37.0289C43.6413 36.523 44.3993 35.9408 43.8471 35.0621C43.1497 33.8974 41.5138 31.8667 41.4249 31.5839C41.7521 31.8954 44.2912 35.0621 44.4881 35.2405C45.0818 35.7624 45.9435 35.3583 46.4498 35.3583C46.4498 34.7793 46.9103 34.1204 46.244 33.4489C45.6326 32.8665 44.235 31.8667 43.9388 31.5233C44.8716 32.1662 45.9746 33.1939 46.6275 33.3596C47.7882 33.6585 48.2042 33.1939 48.638 33.0163C48.2797 31.9566 48.755 31.4661 46.3018 30.4345C48.4248 31.1959 49.365 30.8197 50.1215 30.2248C49.8239 29.4641 49.0659 28.8244 48.4544 28.6147C49.7514 28.6434 50.613 28.061 51.1771 27.3003C50.7019 26.6607 49.7514 26.1954 48.6662 26.0783C50.271 25.8393 51.5487 24.8363 51.6968 23.6716Z" fill="#D5D5D5"/>
</g>
</g>
</svg>
