<svg width="143" height="32" viewBox="0 0 143 32" fill="none" xmlns="http://www.w3.org/2000/svg">
<path d="M51.6375 18.5283C51.6375 18.2261 51.5901 17.9594 51.4953 17.7283C51.4064 17.4913 51.2464 17.2779 51.0152 17.0883C50.79 16.8986 50.4759 16.7179 50.073 16.546C49.6759 16.3741 49.1722 16.1993 48.5617 16.0215C47.9217 15.8319 47.3439 15.6215 46.8283 15.3904C46.3127 15.1533 45.8712 14.8837 45.5038 14.5814C45.1364 14.2792 44.8549 13.9325 44.6593 13.5414C44.4637 13.1503 44.3659 12.7028 44.3659 12.1991C44.3659 11.6953 44.4697 11.2301 44.6771 10.8034C44.8845 10.3768 45.1808 10.0064 45.566 9.69227C45.9572 9.37225 46.4224 9.12334 46.9617 8.94556C47.5009 8.76777 48.1025 8.67887 48.7662 8.67887C49.7381 8.67887 50.5619 8.86555 51.2375 9.23891C51.919 9.60634 52.4375 10.0893 52.7931 10.6879C53.1487 11.2805 53.3265 11.9146 53.3265 12.5902H51.6197C51.6197 12.1043 51.516 11.6746 51.3086 11.3013C51.1012 10.922 50.7871 10.6257 50.3663 10.4123C49.9455 10.193 49.4122 10.0834 48.7662 10.0834C48.1558 10.0834 47.6521 10.1753 47.255 10.359C46.8579 10.5427 46.5616 10.7916 46.3661 11.1057C46.1764 11.4198 46.0816 11.7783 46.0816 12.1813C46.0816 12.4539 46.1379 12.7028 46.2505 12.928C46.369 13.1473 46.5498 13.3517 46.7928 13.5414C47.0417 13.731 47.3558 13.9059 47.735 14.0659C48.1202 14.2259 48.5795 14.38 49.1129 14.5281C49.8478 14.7355 50.4819 14.9667 51.0152 15.2215C51.5486 15.4763 51.9871 15.7637 52.3309 16.0838C52.6805 16.3979 52.9383 16.7564 53.1042 17.1594C53.2761 17.5564 53.362 18.0068 53.362 18.5106C53.362 19.038 53.2554 19.5151 53.042 19.9418C52.8287 20.3685 52.5235 20.7329 52.1264 21.0352C51.7293 21.3374 51.2523 21.5715 50.6952 21.7374C50.1441 21.8974 49.5277 21.9774 48.8462 21.9774C48.2477 21.9774 47.658 21.8945 47.0772 21.7285C46.5024 21.5626 45.9779 21.3137 45.5038 20.9818C45.0356 20.65 44.6593 20.241 44.3748 19.7551C44.0963 19.2632 43.957 18.6943 43.957 18.0483H45.6638C45.6638 18.4928 45.7497 18.875 45.9216 19.1951C46.0935 19.5091 46.3275 19.7699 46.6239 19.9773C46.9261 20.1847 47.2669 20.3388 47.6461 20.4396C48.0313 20.5344 48.4314 20.5818 48.8462 20.5818C49.4448 20.5818 49.9515 20.4988 50.3663 20.3329C50.7811 20.167 51.0952 19.9299 51.3086 19.6217C51.5279 19.3136 51.6375 18.9491 51.6375 18.5283Z" fill="black"/>
<path d="M56.9534 8.14551V21.7997H55.2999V8.14551H56.9534ZM62.8293 12.1813L58.6335 16.6705L56.2867 19.1062L56.1533 17.3549L57.8334 15.3459L60.8203 12.1813H62.8293ZM61.327 21.7997L57.8956 17.2127L58.749 15.746L63.2648 21.7997H61.327Z" fill="black"/>
<path d="M66.3139 12.1813V21.7997H64.6605V12.1813H66.3139ZM64.536 9.63004C64.536 9.36336 64.616 9.13816 64.776 8.95444C64.942 8.77073 65.185 8.67887 65.505 8.67887C65.8191 8.67887 66.0591 8.77073 66.225 8.95444C66.3969 9.13816 66.4828 9.36336 66.4828 9.63004C66.4828 9.88487 66.3969 10.1041 66.225 10.2879C66.0591 10.4656 65.8191 10.5545 65.505 10.5545C65.185 10.5545 64.942 10.4656 64.776 10.2879C64.616 10.1041 64.536 9.88487 64.536 9.63004Z" fill="black"/>
<path d="M70.7408 8.14551V21.7997H69.0874V8.14551H70.7408Z" fill="black"/>
<path d="M75.1678 8.14551V21.7997H73.5143V8.14551H75.1678Z" fill="black"/>
<path d="M86.0751 21.7997H83.3727L83.3905 20.404H86.0751C86.9996 20.404 87.77 20.2114 88.3863 19.8262C89.0027 19.4351 89.4649 18.8899 89.7731 18.1906C90.0872 17.4853 90.2442 16.6616 90.2442 15.7193V14.9281C90.2442 14.1873 90.1553 13.5295 89.9776 12.9547C89.7998 12.3739 89.539 11.885 89.1953 11.4879C88.8516 11.0849 88.4308 10.7797 87.933 10.5723C87.4411 10.3649 86.8751 10.2612 86.2351 10.2612H83.3194V8.85666H86.2351C87.0826 8.85666 87.8559 8.99889 88.5552 9.28335C89.2545 9.56189 89.8561 9.96784 90.3598 10.5012C90.8695 11.0286 91.2606 11.6687 91.5332 12.4213C91.8058 13.168 91.9421 14.0096 91.9421 14.9459V15.7193C91.9421 16.6556 91.8058 17.5001 91.5332 18.2528C91.2606 18.9995 90.8665 19.6366 90.3509 20.164C89.8412 20.6914 89.2249 21.0974 88.5019 21.3819C87.7848 21.6604 86.9759 21.7997 86.0751 21.7997ZM84.2883 8.85666V21.7997H82.5727V8.85666H84.2883Z" fill="black"/>
<path d="M98.2625 21.9774C97.5928 21.9774 96.9854 21.8648 96.4402 21.6396C95.9009 21.4085 95.4357 21.0855 95.0445 20.6707C94.6593 20.2559 94.363 19.764 94.1556 19.1951C93.9482 18.6261 93.8444 18.0039 93.8444 17.3283V16.9549C93.8444 16.1727 93.96 15.4763 94.1911 14.8659C94.4223 14.2496 94.7364 13.7281 95.1334 13.3014C95.5305 12.8747 95.9809 12.5517 96.4846 12.3324C96.9883 12.1132 97.5098 12.0035 98.0491 12.0035C98.7366 12.0035 99.3292 12.122 99.827 12.3591C100.331 12.5961 100.743 12.928 101.063 13.3547C101.383 13.7755 101.62 14.2733 101.774 14.8481C101.928 15.4171 102.005 16.0393 102.005 16.7149V17.4527H94.8223V16.1104H100.36V15.986C100.337 15.5593 100.248 15.1444 100.094 14.7415C99.9456 14.3385 99.7085 14.0066 99.3826 13.7458C99.0566 13.4851 98.6121 13.3547 98.0491 13.3547C97.6758 13.3547 97.3321 13.4347 97.018 13.5947C96.7039 13.7488 96.4342 13.9799 96.209 14.2881C95.9838 14.5963 95.809 14.9726 95.6846 15.4171C95.5601 15.8615 95.4979 16.3741 95.4979 16.9549V17.3283C95.4979 17.7846 95.5601 18.2143 95.6846 18.6172C95.8149 19.0143 96.0016 19.364 96.2446 19.6662C96.4935 19.9684 96.7928 20.2055 97.1424 20.3773C97.498 20.5492 97.901 20.6351 98.3514 20.6351C98.9322 20.6351 99.424 20.5166 99.827 20.2796C100.23 20.0425 100.583 19.7255 100.885 19.3284L101.88 20.1196C101.673 20.4336 101.409 20.7329 101.089 21.0174C100.769 21.3018 100.375 21.533 99.907 21.7108C99.4448 21.8885 98.8966 21.9774 98.2625 21.9774Z" fill="black"/>
<path d="M105.57 14.0303V25.4977H103.916V12.1813H105.427L105.57 14.0303ZM112.05 16.9105V17.0972C112.05 17.7965 111.967 18.4454 111.801 19.0439C111.635 19.6366 111.392 20.1521 111.072 20.5907C110.758 21.0292 110.37 21.37 109.908 21.613C109.445 21.856 108.915 21.9774 108.316 21.9774C107.706 21.9774 107.167 21.8767 106.699 21.6752C106.23 21.4737 105.833 21.1804 105.507 20.7951C105.181 20.4099 104.921 19.9477 104.725 19.4084C104.535 18.8691 104.405 18.2617 104.334 17.5861V16.5905C104.405 15.8793 104.538 15.2422 104.734 14.6792C104.93 14.1162 105.187 13.6362 105.507 13.2391C105.833 12.8362 106.227 12.531 106.69 12.3235C107.152 12.1102 107.685 12.0035 108.29 12.0035C108.894 12.0035 109.431 12.122 109.899 12.3591C110.367 12.5902 110.761 12.9221 111.081 13.3547C111.401 13.7873 111.641 14.3059 111.801 14.9104C111.967 15.5089 112.05 16.1756 112.05 16.9105ZM110.397 17.0972V16.9105C110.397 16.4304 110.346 15.98 110.245 15.5593C110.145 15.1326 109.988 14.7592 109.774 14.4392C109.567 14.1133 109.3 13.8584 108.974 13.6747C108.648 13.4851 108.26 13.3903 107.81 13.3903C107.395 13.3903 107.033 13.4614 106.725 13.6036C106.423 13.7458 106.165 13.9384 105.952 14.1814C105.738 14.4185 105.564 14.6911 105.427 14.9992C105.297 15.3015 105.199 15.6156 105.134 15.9415V18.2439C105.253 18.6587 105.418 19.0499 105.632 19.4173C105.845 19.7788 106.13 20.0721 106.485 20.2973C106.841 20.5166 107.288 20.6263 107.828 20.6263C108.272 20.6263 108.654 20.5344 108.974 20.3507C109.3 20.161 109.567 19.9032 109.774 19.5773C109.988 19.2514 110.145 18.878 110.245 18.4572C110.346 18.0305 110.397 17.5772 110.397 17.0972Z" fill="black"/>
<path d="M113.712 17.0972V16.8927C113.712 16.1993 113.813 15.5563 114.015 14.9637C114.216 14.3651 114.506 13.8466 114.886 13.408C115.265 12.9636 115.724 12.6198 116.264 12.3769C116.803 12.128 117.407 12.0035 118.077 12.0035C118.753 12.0035 119.36 12.128 119.899 12.3769C120.445 12.6198 120.907 12.9636 121.286 13.408C121.671 13.8466 121.965 14.3651 122.166 14.9637C122.368 15.5563 122.468 16.1993 122.468 16.8927V17.0972C122.468 17.7905 122.368 18.4335 122.166 19.0262C121.965 19.6188 121.671 20.1373 121.286 20.5818C120.907 21.0203 120.448 21.3641 119.908 21.613C119.375 21.856 118.77 21.9774 118.095 21.9774C117.419 21.9774 116.812 21.856 116.272 21.613C115.733 21.3641 115.271 21.0203 114.886 20.5818C114.506 20.1373 114.216 19.6188 114.015 19.0262C113.813 18.4335 113.712 17.7905 113.712 17.0972ZM115.357 16.8927V17.0972C115.357 17.5772 115.413 18.0305 115.526 18.4572C115.638 18.878 115.807 19.2514 116.032 19.5773C116.264 19.9032 116.551 20.161 116.895 20.3507C117.238 20.5344 117.638 20.6263 118.095 20.6263C118.545 20.6263 118.939 20.5344 119.277 20.3507C119.621 20.161 119.905 19.9032 120.13 19.5773C120.356 19.2514 120.525 18.878 120.637 18.4572C120.756 18.0305 120.815 17.5772 120.815 17.0972V16.8927C120.815 16.4186 120.756 15.9712 120.637 15.5504C120.525 15.1237 120.353 14.7474 120.122 14.4214C119.896 14.0896 119.612 13.8288 119.268 13.6392C118.93 13.4495 118.533 13.3547 118.077 13.3547C117.627 13.3547 117.23 13.4495 116.886 13.6392C116.548 13.8288 116.264 14.0896 116.032 14.4214C115.807 14.7474 115.638 15.1237 115.526 15.5504C115.413 15.9712 115.357 16.4186 115.357 16.8927Z" fill="black"/>
<path d="M130.131 19.2484C130.131 19.0113 130.078 18.7921 129.971 18.5906C129.87 18.3832 129.66 18.1965 129.34 18.0305C129.026 17.8587 128.552 17.7105 127.918 17.5861C127.384 17.4735 126.901 17.3401 126.469 17.186C126.042 17.032 125.677 16.8453 125.375 16.626C125.079 16.4067 124.851 16.1489 124.691 15.8526C124.531 15.5563 124.451 15.2096 124.451 14.8126C124.451 14.4333 124.534 14.0747 124.7 13.737C124.871 13.3992 125.111 13.0999 125.42 12.8391C125.734 12.5784 126.11 12.3739 126.549 12.2258C126.987 12.0776 127.476 12.0035 128.015 12.0035C128.786 12.0035 129.444 12.1398 129.989 12.4124C130.534 12.685 130.952 13.0495 131.242 13.5058C131.533 13.9562 131.678 14.457 131.678 15.0081H130.033C130.033 14.7415 129.953 14.4837 129.793 14.2348C129.639 13.9799 129.411 13.7695 129.109 13.6036C128.812 13.4377 128.448 13.3547 128.015 13.3547C127.559 13.3547 127.189 13.4258 126.904 13.5681C126.626 13.7044 126.421 13.8792 126.291 14.0925C126.166 14.3059 126.104 14.5311 126.104 14.7681C126.104 14.9459 126.134 15.1059 126.193 15.2482C126.258 15.3845 126.371 15.5119 126.531 15.6304C126.691 15.743 126.916 15.8497 127.206 15.9504C127.497 16.0512 127.867 16.1519 128.318 16.2527C129.106 16.4304 129.755 16.6438 130.264 16.8927C130.774 17.1416 131.153 17.4468 131.402 17.8083C131.651 18.1698 131.776 18.6084 131.776 19.1239C131.776 19.5447 131.687 19.9299 131.509 20.2796C131.337 20.6292 131.085 20.9315 130.753 21.1863C130.427 21.4352 130.036 21.6308 129.58 21.773C129.13 21.9093 128.623 21.9774 128.06 21.9774C127.212 21.9774 126.495 21.8263 125.909 21.5241C125.322 21.2218 124.877 20.8307 124.575 20.3507C124.273 19.8707 124.122 19.364 124.122 18.8306H125.775C125.799 19.281 125.929 19.6395 126.166 19.9062C126.403 20.167 126.694 20.3536 127.038 20.4662C127.381 20.5729 127.722 20.6263 128.06 20.6263C128.51 20.6263 128.887 20.567 129.189 20.4485C129.497 20.3299 129.731 20.167 129.891 19.9595C130.051 19.7521 130.131 19.5151 130.131 19.2484Z" fill="black"/>
<path d="M135.722 12.1813V21.7997H134.069V12.1813H135.722ZM133.945 9.63004C133.945 9.36336 134.025 9.13816 134.185 8.95444C134.351 8.77073 134.594 8.67887 134.914 8.67887C135.228 8.67887 135.468 8.77073 135.634 8.95444C135.805 9.13816 135.891 9.36336 135.891 9.63004C135.891 9.88487 135.805 10.1041 135.634 10.2879C135.468 10.4656 135.228 10.5545 134.914 10.5545C134.594 10.5545 134.351 10.4656 134.185 10.2879C134.025 10.1041 133.945 9.88487 133.945 9.63004Z" fill="black"/>
<path d="M142.39 12.1813V13.4436H137.189V12.1813H142.39ZM138.949 9.84339H140.594V19.4173C140.594 19.7432 140.644 19.9892 140.745 20.1551C140.846 20.321 140.976 20.4307 141.136 20.484C141.296 20.5374 141.468 20.564 141.652 20.564C141.788 20.564 141.93 20.5522 142.078 20.5285C142.233 20.4988 142.348 20.4751 142.425 20.4574L142.434 21.7997C142.304 21.8411 142.132 21.8797 141.918 21.9152C141.711 21.9567 141.459 21.9774 141.163 21.9774C140.76 21.9774 140.389 21.8974 140.052 21.7374C139.714 21.5774 139.444 21.3107 139.243 20.9374C139.047 20.5581 138.949 20.0484 138.949 19.4084V9.84339Z" fill="black"/>
<path d="M32.3726 15.3016C32.3726 23.7146 25.5525 30.5347 17.1394 30.5347C8.72638 30.5347 1.90625 23.7146 1.90625 15.3016C1.90625 6.88849 8.72638 0.0683594 17.1394 0.0683594C25.5525 0.0683594 32.3726 6.88849 32.3726 15.3016ZM9.18895 15.3016C9.18895 19.6925 12.7485 23.252 17.1394 23.252C21.5304 23.252 25.0899 19.6925 25.0899 15.3016C25.0899 10.9106 21.5304 7.35106 17.1394 7.35106C12.7485 7.35106 9.18895 10.9106 9.18895 15.3016Z" fill="url(#paint0_linear_7677_544)"/>
<path d="M32.3726 15.3016C32.3726 23.7146 25.5525 30.5347 17.1394 30.5347C8.72638 30.5347 1.90625 23.7146 1.90625 15.3016C1.90625 6.88849 8.72638 0.0683594 17.1394 0.0683594C25.5525 0.0683594 32.3726 6.88849 32.3726 15.3016ZM9.18895 15.3016C9.18895 19.6925 12.7485 23.252 17.1394 23.252C21.5304 23.252 25.0899 19.6925 25.0899 15.3016C25.0899 10.9106 21.5304 7.35106 17.1394 7.35106C12.7485 7.35106 9.18895 10.9106 9.18895 15.3016Z" fill="black" fill-opacity="0.26"/>
<path d="M30.4664 15.3016C30.4664 23.7146 23.6463 30.5347 15.2332 30.5347C6.82013 30.5347 0 23.7146 0 15.3016C0 6.88849 6.82013 0.0683594 15.2332 0.0683594C23.6463 0.0683594 30.4664 6.88849 30.4664 15.3016ZM7.2827 15.3016C7.2827 19.6925 10.8423 23.252 15.2332 23.252C19.6241 23.252 23.1837 19.6925 23.1837 15.3016C23.1837 10.9106 19.6241 7.35106 15.2332 7.35106C10.8423 7.35106 7.2827 10.9106 7.2827 15.3016Z" fill="url(#paint1_linear_7677_544)"/>
<circle cx="32.6883" cy="28.3133" r="2.85622" fill="url(#paint2_linear_7677_544)"/>
<defs>
<linearGradient id="paint0_linear_7677_544" x1="7.17928" y1="7.09906" x2="29.4432" y2="26.1406" gradientUnits="userSpaceOnUse">
<stop stop-color="#DA8CFF"/>
<stop offset="1" stop-color="#0085FF"/>
</linearGradient>
<linearGradient id="paint1_linear_7677_544" x1="5.27303" y1="7.09906" x2="27.5369" y2="26.1406" gradientUnits="userSpaceOnUse">
<stop stop-color="#DA8CFF"/>
<stop offset="1" stop-color="#0085FF"/>
</linearGradient>
<linearGradient id="paint2_linear_7677_544" x1="29.832" y1="27.3612" x2="34.275" y2="31.1695" gradientUnits="userSpaceOnUse">
<stop stop-color="#0E86FF"/>
<stop offset="1" stop-color="#1063BD"/>
</linearGradient>
</defs>
</svg>
