<svg width="191" height="58" viewBox="0 0 191 58" fill="none" xmlns="http://www.w3.org/2000/svg">
<path d="M68.9648 33.0673C68.9648 32.6689 68.9023 32.3173 68.7773 32.0126C68.6602 31.7001 68.4492 31.4189 68.1445 31.1689C67.8477 30.9189 67.4336 30.6806 66.9023 30.454C66.3789 30.2275 65.7148 29.997 64.9102 29.7626C64.0664 29.5126 63.3047 29.2353 62.625 28.9306C61.9453 28.6181 61.3633 28.2626 60.8789 27.8642C60.3945 27.4658 60.0234 27.0087 59.7656 26.4931C59.5078 25.9775 59.3789 25.3876 59.3789 24.7236C59.3789 24.0595 59.5156 23.4462 59.7891 22.8837C60.0625 22.3212 60.4531 21.8329 60.9609 21.4189C61.4766 20.997 62.0898 20.6689 62.8008 20.4345C63.5117 20.2001 64.3047 20.0829 65.1797 20.0829C66.4609 20.0829 67.5469 20.329 68.4375 20.8212C69.3359 21.3056 70.0195 21.9423 70.4883 22.7314C70.957 23.5126 71.1914 24.3486 71.1914 25.2392H68.9414C68.9414 24.5986 68.8047 24.0322 68.5312 23.54C68.2578 23.04 67.8438 22.6494 67.2891 22.3681C66.7344 22.079 66.0312 21.9345 65.1797 21.9345C64.375 21.9345 63.7109 22.0556 63.1875 22.2978C62.6641 22.54 62.2734 22.8681 62.0156 23.2822C61.7656 23.6962 61.6406 24.1689 61.6406 24.7001C61.6406 25.0595 61.7148 25.3876 61.8633 25.6845C62.0195 25.9736 62.2578 26.2431 62.5781 26.4931C62.9062 26.7431 63.3203 26.9736 63.8203 27.1845C64.3281 27.3954 64.9336 27.5986 65.6367 27.7939C66.6055 28.0673 67.4414 28.372 68.1445 28.7079C68.8477 29.0439 69.4258 29.4228 69.8789 29.8447C70.3398 30.2587 70.6797 30.7314 70.8984 31.2626C71.125 31.7861 71.2383 32.3798 71.2383 33.0439C71.2383 33.7392 71.0977 34.3681 70.8164 34.9306C70.5352 35.4931 70.1328 35.9736 69.6094 36.372C69.0859 36.7704 68.457 37.079 67.7227 37.2978C66.9961 37.5087 66.1836 37.6142 65.2852 37.6142C64.4961 37.6142 63.7188 37.5048 62.9531 37.2861C62.1953 37.0673 61.5039 36.7392 60.8789 36.3017C60.2617 35.8642 59.7656 35.3251 59.3906 34.6845C59.0234 34.0361 58.8398 33.2861 58.8398 32.4345H61.0898C61.0898 33.0204 61.2031 33.5244 61.4297 33.9462C61.6562 34.3603 61.9648 34.704 62.3555 34.9775C62.7539 35.2509 63.2031 35.454 63.7031 35.5869C64.2109 35.7119 64.7383 35.7744 65.2852 35.7744C66.0742 35.7744 66.7422 35.665 67.2891 35.4462C67.8359 35.2275 68.25 34.915 68.5312 34.5087C68.8203 34.1025 68.9648 33.622 68.9648 33.0673ZM75.9727 19.3798V37.3798H73.793V19.3798H75.9727ZM83.7188 24.7001L78.1875 30.6181L75.0938 33.829L74.918 31.5204L77.1328 28.872L81.0703 24.7001H83.7188ZM81.7383 37.3798L77.2148 31.3329L78.3398 29.3994L84.293 37.3798H81.7383ZM88.3125 24.7001V37.3798H86.1328V24.7001H88.3125ZM85.9688 21.3369C85.9688 20.9853 86.0742 20.6884 86.2852 20.4462C86.5039 20.204 86.8242 20.0829 87.2461 20.0829C87.6602 20.0829 87.9766 20.204 88.1953 20.4462C88.4219 20.6884 88.5352 20.9853 88.5352 21.3369C88.5352 21.6728 88.4219 21.9619 88.1953 22.204C87.9766 22.4384 87.6602 22.5556 87.2461 22.5556C86.8242 22.5556 86.5039 22.4384 86.2852 22.204C86.0742 21.9619 85.9688 21.6728 85.9688 21.3369ZM94.1484 19.3798V37.3798H91.9688V19.3798H94.1484ZM99.9844 19.3798V37.3798H97.8047V19.3798H99.9844ZM114.363 37.3798H110.801L110.824 35.54H114.363C115.582 35.54 116.598 35.2861 117.41 34.7783C118.223 34.2626 118.832 33.5439 119.238 32.622C119.652 31.6923 119.859 30.6064 119.859 29.3642V28.3212C119.859 27.3447 119.742 26.4775 119.508 25.7197C119.273 24.954 118.93 24.3095 118.477 23.7861C118.023 23.2548 117.469 22.8525 116.812 22.579C116.164 22.3056 115.418 22.1689 114.574 22.1689H110.73V20.3173H114.574C115.691 20.3173 116.711 20.5048 117.633 20.8798C118.555 21.247 119.348 21.7822 120.012 22.4853C120.684 23.1806 121.199 24.0244 121.559 25.0165C121.918 26.0009 122.098 27.1103 122.098 28.3447V29.3642C122.098 30.5986 121.918 31.7119 121.559 32.704C121.199 33.6884 120.68 34.5283 120 35.2236C119.328 35.9189 118.516 36.454 117.562 36.829C116.617 37.1962 115.551 37.3798 114.363 37.3798ZM112.008 20.3173V37.3798H109.746V20.3173H112.008ZM130.43 37.6142C129.547 37.6142 128.746 37.4658 128.027 37.1689C127.316 36.8642 126.703 36.4384 126.188 35.8915C125.68 35.3447 125.289 34.6962 125.016 33.9462C124.742 33.1962 124.605 32.3759 124.605 31.4853V30.9931C124.605 29.9619 124.758 29.0439 125.062 28.2392C125.367 27.4267 125.781 26.7392 126.305 26.1767C126.828 25.6142 127.422 25.1884 128.086 24.8994C128.75 24.6103 129.438 24.4658 130.148 24.4658C131.055 24.4658 131.836 24.622 132.492 24.9345C133.156 25.247 133.699 25.6845 134.121 26.247C134.543 26.8017 134.855 27.4579 135.059 28.2158C135.262 28.9658 135.363 29.7861 135.363 30.6767V31.6494H125.895V29.8798H133.195V29.7158C133.164 29.1533 133.047 28.6064 132.844 28.0751C132.648 27.5439 132.336 27.1064 131.906 26.7626C131.477 26.4189 130.891 26.247 130.148 26.247C129.656 26.247 129.203 26.3525 128.789 26.5634C128.375 26.7665 128.02 27.0712 127.723 27.4775C127.426 27.8837 127.195 28.3798 127.031 28.9658C126.867 29.5517 126.785 30.2275 126.785 30.9931V31.4853C126.785 32.0869 126.867 32.6533 127.031 33.1845C127.203 33.7079 127.449 34.1689 127.77 34.5673C128.098 34.9658 128.492 35.2783 128.953 35.5048C129.422 35.7314 129.953 35.8447 130.547 35.8447C131.312 35.8447 131.961 35.6884 132.492 35.3759C133.023 35.0634 133.488 34.6454 133.887 34.122L135.199 35.165C134.926 35.579 134.578 35.9736 134.156 36.3486C133.734 36.7236 133.215 37.0283 132.598 37.2626C131.988 37.497 131.266 37.6142 130.43 37.6142ZM140.062 27.1376V42.2548H137.883V24.7001H139.875L140.062 27.1376ZM148.605 30.9345V31.1806C148.605 32.1025 148.496 32.9579 148.277 33.747C148.059 34.5283 147.738 35.2079 147.316 35.7861C146.902 36.3642 146.391 36.8134 145.781 37.1337C145.172 37.454 144.473 37.6142 143.684 37.6142C142.879 37.6142 142.168 37.4814 141.551 37.2158C140.934 36.9501 140.41 36.5634 139.98 36.0556C139.551 35.5478 139.207 34.9384 138.949 34.2275C138.699 33.5165 138.527 32.7158 138.434 31.8251V30.5126C138.527 29.5751 138.703 28.7353 138.961 27.9931C139.219 27.2509 139.559 26.6181 139.98 26.0947C140.41 25.5634 140.93 25.1611 141.539 24.8876C142.148 24.6064 142.852 24.4658 143.648 24.4658C144.445 24.4658 145.152 24.622 145.77 24.9345C146.387 25.2392 146.906 25.6767 147.328 26.247C147.75 26.8173 148.066 27.5009 148.277 28.2978C148.496 29.0869 148.605 29.9658 148.605 30.9345ZM146.426 31.1806V30.9345C146.426 30.3017 146.359 29.7079 146.227 29.1533C146.094 28.5908 145.887 28.0986 145.605 27.6767C145.332 27.247 144.98 26.9111 144.551 26.6689C144.121 26.4189 143.609 26.2939 143.016 26.2939C142.469 26.2939 141.992 26.3876 141.586 26.5751C141.188 26.7626 140.848 27.0165 140.566 27.3369C140.285 27.6494 140.055 28.0087 139.875 28.415C139.703 28.8134 139.574 29.2275 139.488 29.6572V32.6923C139.645 33.2392 139.863 33.7548 140.145 34.2392C140.426 34.7158 140.801 35.1025 141.27 35.3994C141.738 35.6884 142.328 35.8329 143.039 35.8329C143.625 35.8329 144.129 35.7119 144.551 35.4697C144.98 35.2197 145.332 34.8798 145.605 34.4501C145.887 34.0204 146.094 33.5283 146.227 32.9736C146.359 32.4111 146.426 31.8134 146.426 31.1806ZM150.797 31.1806V30.9111C150.797 29.997 150.93 29.1494 151.195 28.3681C151.461 27.579 151.844 26.8954 152.344 26.3173C152.844 25.7314 153.449 25.2783 154.16 24.9579C154.871 24.6298 155.668 24.4658 156.551 24.4658C157.441 24.4658 158.242 24.6298 158.953 24.9579C159.672 25.2783 160.281 25.7314 160.781 26.3173C161.289 26.8954 161.676 27.579 161.941 28.3681C162.207 29.1494 162.34 29.997 162.34 30.9111V31.1806C162.34 32.0947 162.207 32.9423 161.941 33.7236C161.676 34.5048 161.289 35.1884 160.781 35.7744C160.281 36.3525 159.676 36.8056 158.965 37.1337C158.262 37.454 157.465 37.6142 156.574 37.6142C155.684 37.6142 154.883 37.454 154.172 37.1337C153.461 36.8056 152.852 36.3525 152.344 35.7744C151.844 35.1884 151.461 34.5048 151.195 33.7236C150.93 32.9423 150.797 32.0947 150.797 31.1806ZM152.965 30.9111V31.1806C152.965 31.8134 153.039 32.4111 153.188 32.9736C153.336 33.5283 153.559 34.0204 153.855 34.4501C154.16 34.8798 154.539 35.2197 154.992 35.4697C155.445 35.7119 155.973 35.8329 156.574 35.8329C157.168 35.8329 157.688 35.7119 158.133 35.4697C158.586 35.2197 158.961 34.8798 159.258 34.4501C159.555 34.0204 159.777 33.5283 159.926 32.9736C160.082 32.4111 160.16 31.8134 160.16 31.1806V30.9111C160.16 30.2861 160.082 29.6962 159.926 29.1415C159.777 28.579 159.551 28.0829 159.246 27.6533C158.949 27.2158 158.574 26.872 158.121 26.622C157.676 26.372 157.152 26.247 156.551 26.247C155.957 26.247 155.434 26.372 154.98 26.622C154.535 26.872 154.16 27.2158 153.855 27.6533C153.559 28.0829 153.336 28.579 153.188 29.1415C153.039 29.6962 152.965 30.2861 152.965 30.9111ZM172.441 34.0165C172.441 33.704 172.371 33.415 172.23 33.1494C172.098 32.8759 171.82 32.6298 171.398 32.4111C170.984 32.1845 170.359 31.9892 169.523 31.8251C168.82 31.6767 168.184 31.5009 167.613 31.2978C167.051 31.0947 166.57 30.8486 166.172 30.5595C165.781 30.2704 165.48 29.9306 165.27 29.54C165.059 29.1494 164.953 28.6923 164.953 28.1689C164.953 27.6689 165.062 27.1962 165.281 26.7509C165.508 26.3056 165.824 25.9111 166.23 25.5673C166.645 25.2236 167.141 24.954 167.719 24.7587C168.297 24.5634 168.941 24.4658 169.652 24.4658C170.668 24.4658 171.535 24.6454 172.254 25.0048C172.973 25.3642 173.523 25.8447 173.906 26.4462C174.289 27.04 174.48 27.7001 174.48 28.4267H172.312C172.312 28.0751 172.207 27.7353 171.996 27.4072C171.793 27.0712 171.492 26.7939 171.094 26.5751C170.703 26.3564 170.223 26.247 169.652 26.247C169.051 26.247 168.562 26.3408 168.188 26.5283C167.82 26.7079 167.551 26.9384 167.379 27.2197C167.215 27.5009 167.133 27.7978 167.133 28.1103C167.133 28.3447 167.172 28.5556 167.25 28.7431C167.336 28.9228 167.484 29.0908 167.695 29.247C167.906 29.3954 168.203 29.5361 168.586 29.6689C168.969 29.8017 169.457 29.9345 170.051 30.0673C171.09 30.3017 171.945 30.5829 172.617 30.9111C173.289 31.2392 173.789 31.6415 174.117 32.1181C174.445 32.5947 174.609 33.1728 174.609 33.8525C174.609 34.4072 174.492 34.915 174.258 35.3759C174.031 35.8369 173.699 36.2353 173.262 36.5712C172.832 36.8994 172.316 37.1572 171.715 37.3447C171.121 37.5244 170.453 37.6142 169.711 37.6142C168.594 37.6142 167.648 37.415 166.875 37.0165C166.102 36.6181 165.516 36.1025 165.117 35.4697C164.719 34.8369 164.52 34.1689 164.52 33.4658H166.699C166.73 34.0595 166.902 34.5322 167.215 34.8837C167.527 35.2275 167.91 35.4736 168.363 35.622C168.816 35.7626 169.266 35.8329 169.711 35.8329C170.305 35.8329 170.801 35.7548 171.199 35.5986C171.605 35.4423 171.914 35.2275 172.125 34.954C172.336 34.6806 172.441 34.3681 172.441 34.0165ZM179.812 24.7001V37.3798H177.633V24.7001H179.812ZM177.469 21.3369C177.469 20.9853 177.574 20.6884 177.785 20.4462C178.004 20.204 178.324 20.0829 178.746 20.0829C179.16 20.0829 179.477 20.204 179.695 20.4462C179.922 20.6884 180.035 20.9853 180.035 21.3369C180.035 21.6728 179.922 21.9619 179.695 22.204C179.477 22.4384 179.16 22.5556 178.746 22.5556C178.324 22.5556 178.004 22.4384 177.785 22.204C177.574 21.9619 177.469 21.6728 177.469 21.3369ZM188.602 24.7001V26.3642H181.746V24.7001H188.602ZM184.066 21.6181H186.234V34.2392C186.234 34.6689 186.301 34.9931 186.434 35.2119C186.566 35.4306 186.738 35.5751 186.949 35.6454C187.16 35.7158 187.387 35.7509 187.629 35.7509C187.809 35.7509 187.996 35.7353 188.191 35.704C188.395 35.665 188.547 35.6337 188.648 35.6103L188.66 37.3798C188.488 37.4345 188.262 37.4853 187.98 37.5322C187.707 37.5869 187.375 37.6142 186.984 37.6142C186.453 37.6142 185.965 37.5087 185.52 37.2978C185.074 37.0869 184.719 36.7353 184.453 36.2431C184.195 35.7431 184.066 35.0712 184.066 34.2275V21.6181Z" fill="white"/>
<path d="M43.5656 28.8137C43.5656 39.9045 34.5747 48.8954 23.484 48.8954C12.3932 48.8954 3.40234 39.9045 3.40234 28.8137C3.40234 17.723 12.3932 8.73212 23.484 8.73212C34.5747 8.73212 43.5656 17.723 43.5656 28.8137ZM13.003 28.8137C13.003 34.6022 17.6955 39.2947 23.484 39.2947C29.2725 39.2947 33.965 34.6022 33.965 28.8137C33.965 23.0253 29.2725 18.3328 23.484 18.3328C17.6955 18.3328 13.003 23.0253 13.003 28.8137Z" fill="url(#paint0_linear_7632_1727)"/>
<path d="M43.5656 28.8137C43.5656 39.9045 34.5747 48.8954 23.484 48.8954C12.3932 48.8954 3.40234 39.9045 3.40234 28.8137C3.40234 17.723 12.3932 8.73212 23.484 8.73212C34.5747 8.73212 43.5656 17.723 43.5656 28.8137ZM13.003 28.8137C13.003 34.6022 17.6955 39.2947 23.484 39.2947C29.2725 39.2947 33.965 34.6022 33.965 28.8137C33.965 23.0253 29.2725 18.3328 23.484 18.3328C17.6955 18.3328 13.003 23.0253 13.003 28.8137Z" fill="black" fill-opacity="0.26"/>
<path d="M41.0539 28.8137C41.0539 39.9045 32.063 48.8954 20.9723 48.8954C9.88148 48.8954 0.890625 39.9045 0.890625 28.8137C0.890625 17.723 9.88148 8.73212 20.9723 8.73212C32.063 8.73212 41.0539 17.723 41.0539 28.8137ZM10.4913 28.8137C10.4913 34.6022 15.1838 39.2947 20.9723 39.2947C26.7607 39.2947 31.4532 34.6022 31.4532 28.8137C31.4532 23.0253 26.7607 18.3328 20.9723 18.3328C15.1838 18.3328 10.4913 23.0253 10.4913 28.8137Z" fill="url(#paint1_linear_7632_1727)"/>
<circle cx="43.9841" cy="45.9669" r="3.76531" fill="url(#paint2_linear_7632_1727)"/>
<defs>
<linearGradient id="paint0_linear_7632_1727" x1="10.3537" y1="18.0006" x2="39.7037" y2="43.1026" gradientUnits="userSpaceOnUse">
<stop stop-color="#DA8CFF"/>
<stop offset="1" stop-color="#0085FF"/>
</linearGradient>
<linearGradient id="paint1_linear_7632_1727" x1="7.84196" y1="18.0006" x2="37.192" y2="43.1026" gradientUnits="userSpaceOnUse">
<stop stop-color="#DA8CFF"/>
<stop offset="1" stop-color="#0085FF"/>
</linearGradient>
<linearGradient id="paint2_linear_7632_1727" x1="40.2188" y1="44.7118" x2="46.0759" y2="49.7322" gradientUnits="userSpaceOnUse">
<stop stop-color="#0E86FF"/>
<stop offset="1" stop-color="#1063BD"/>
</linearGradient>
</defs>
</svg>
