<svg width="128" height="35" viewBox="0 0 128 35" fill="none" xmlns="http://www.w3.org/2000/svg">
<g filter="url(#filter0_d_5775_2064)">
<path d="M15.5908 22.8573C15.5908 23.5167 15.5483 24.0791 15.4634 24.5445C15.3878 25.01 15.2792 25.3882 15.1376 25.6791C14.996 25.97 14.8213 26.1833 14.6136 26.3191C14.4153 26.4548 14.1982 26.5227 13.9621 26.5227C13.7827 26.5227 13.5844 26.4597 13.3673 26.3336C13.1501 26.2076 12.9424 26.0524 12.7441 25.8682C12.5553 25.6839 12.3948 25.4948 12.2626 25.3009C12.1398 25.107 12.0785 24.9373 12.0785 24.7918C12.0785 24.6948 12.0879 24.6318 12.1068 24.6027C12.1351 24.5833 12.1682 24.5736 12.2059 24.5736C12.2531 24.5833 12.3051 24.5979 12.3617 24.6173C12.4278 24.6367 12.4986 24.6464 12.5742 24.6464C12.8385 24.6464 13.0274 24.4767 13.1407 24.1373C13.2634 23.7882 13.3248 23.2355 13.3248 22.4791V6.02821C12.4278 6.10578 11.5639 6.27063 10.733 6.52275C9.90214 6.76518 9.1704 7.13366 8.5378 7.62821C7.9052 8.12275 7.40006 8.7676 7.02239 9.56275C6.64471 10.3482 6.45588 11.3179 6.45588 12.4718C6.45588 12.9858 6.50309 13.4512 6.59751 13.8682C6.70137 14.2755 6.83355 14.644 6.99406 14.9736C7.15457 15.3033 7.32925 15.5943 7.51808 15.8464C7.71636 16.0985 7.90992 16.3215 8.09875 16.5155C8.25926 16.467 8.37256 16.4864 8.43866 16.5736C8.50475 16.6609 8.5378 16.7821 8.5378 16.9373C8.5378 17.1312 8.49531 17.3349 8.41033 17.5482C8.3348 17.7518 8.23094 17.9409 8.09875 18.1155C7.96657 18.2803 7.8155 18.4209 7.64555 18.5373C7.48503 18.6439 7.3198 18.6973 7.14985 18.6973C7.07432 18.6973 6.99878 18.6876 6.92325 18.6682C6.85716 18.6488 6.78634 18.6052 6.71081 18.5373C6.50309 18.3821 6.25288 18.13 5.96018 17.7809C5.66749 17.4221 5.38895 16.9809 5.12458 16.4573C4.86021 15.9336 4.63361 15.3373 4.44477 14.6682C4.25594 13.9894 4.16152 13.2573 4.16152 12.4718C4.16152 11.0367 4.42117 9.77123 4.94047 8.67548C5.45977 7.57972 6.18207 6.66336 7.10736 5.92639C8.03266 5.17973 9.12791 4.6173 10.3931 4.23912C11.6678 3.86094 13.0604 3.67185 14.5711 3.67185C14.9205 3.67185 15.3406 3.6767 15.8316 3.68639C16.332 3.68639 16.8277 3.69124 17.3187 3.70094C17.8096 3.71064 18.2487 3.72033 18.6358 3.73003C19.0324 3.73003 19.3015 3.73003 19.4431 3.73003C19.5658 3.73003 19.665 3.72033 19.7405 3.70094C19.8255 3.67185 19.8916 3.64276 19.9388 3.61367C19.9954 3.58458 20.0379 3.56033 20.0662 3.54094C20.0946 3.51185 20.1182 3.4973 20.1371 3.4973C20.1843 3.4973 20.2268 3.53124 20.2645 3.59912C20.3117 3.6573 20.3495 3.73488 20.3778 3.83185C20.4156 3.91912 20.4439 4.02094 20.4628 4.1373C20.4817 4.25367 20.4911 4.37003 20.4911 4.48639C20.4911 4.66094 20.4675 4.84518 20.4203 5.03912C20.3731 5.22336 20.3023 5.39306 20.2079 5.54821C20.1135 5.69366 19.9954 5.81488 19.8538 5.91185C19.7122 6.00882 19.5469 6.0573 19.3581 6.0573C19.2542 6.0573 19.0607 6.0573 18.7774 6.0573C18.5036 6.0476 18.1873 6.03791 17.8285 6.02821C17.4697 6.01851 17.0921 6.00882 16.6955 5.99912C16.299 5.98942 15.9307 5.97972 15.5908 5.97003V22.8573Z" fill="#EEEEEE"/>
<path d="M7.30446 18.6859C7.16781 18.72 5.91699 18.7338 5.80131 18.6859L6.79202 18.1393C6.79202 18.1393 7.44111 18.6517 7.30446 18.6859Z" fill="#EEEEEE"/>
<path d="M14.2736 26.4749C14.1127 26.5385 13.8057 26.5717 12.8388 26.6115L12.7363 25.9966L13.4537 25.7575L14.3077 26.0991L14.2736 26.4749Z" fill="#EEEEEE"/>
<path d="M20.252 3.58611C20.2015 3.46111 19.9978 3.40983 19.111 3.38114L19.193 3.85941C19.2954 3.89357 19.5072 3.96873 19.5346 3.99606C19.5619 4.02339 20.0242 3.73415 20.252 3.58611Z" fill="#EEEEEE"/>
<path d="M14.5249 22.9135C14.5249 23.5787 14.4821 24.1461 14.3964 24.6157C14.3203 25.0853 14.2108 25.4669 14.0679 25.7604C13.9251 26.0539 13.749 26.2691 13.5395 26.4061C13.3396 26.543 13.1206 26.6115 12.8826 26.6115C12.7017 26.6115 12.5018 26.5479 12.2828 26.4208C12.0638 26.2936 11.8544 26.137 11.6544 25.9512C11.464 25.7653 11.3022 25.5745 11.1689 25.3788C11.0451 25.1832 10.9832 25.012 10.9832 24.8652C10.9832 24.7674 10.9927 24.7038 11.0118 24.6744C11.0403 24.6549 11.0737 24.6451 11.1117 24.6451C11.1593 24.6549 11.2117 24.6696 11.2688 24.6891C11.3355 24.7087 11.4069 24.7185 11.483 24.7185C11.7496 24.7185 11.94 24.5473 12.0543 24.2048C12.1781 23.8526 12.24 23.295 12.24 22.5319V5.93457C11.3355 6.01284 10.4643 6.17916 9.62649 6.43352C8.78866 6.6781 8.05079 7.04987 7.4129 7.54882C6.775 8.04776 6.26564 8.69835 5.88481 9.50058C5.50397 10.293 5.31356 11.2714 5.31356 12.4356C5.31356 12.9541 5.36116 13.4237 5.45637 13.8444C5.5611 14.2553 5.69439 14.627 5.85624 14.9596C6.0181 15.2923 6.19423 15.5858 6.38465 15.8401C6.58459 16.0945 6.77976 16.3195 6.97018 16.5152C7.13203 16.4663 7.24628 16.4858 7.31293 16.5739C7.37958 16.6619 7.4129 16.7842 7.4129 16.9408C7.4129 17.1364 7.37005 17.3419 7.28437 17.5571C7.2082 17.7626 7.10347 17.9533 6.97018 18.1294C6.83689 18.2957 6.68456 18.4376 6.51318 18.555C6.35133 18.6626 6.18471 18.7164 6.01334 18.7164C5.93717 18.7164 5.86101 18.7066 5.78484 18.6871C5.71819 18.6675 5.64679 18.6235 5.57062 18.555C5.36116 18.3985 5.10886 18.1441 4.81372 17.7919C4.51857 17.4299 4.23771 16.9848 3.97112 16.4565C3.70454 15.9282 3.47604 15.3265 3.28562 14.6515C3.09521 13.9666 3 13.228 3 12.4356C3 10.9876 3.26182 9.71092 3.78547 8.60541C4.30911 7.4999 5.03745 6.57538 5.97049 5.83185C6.90353 5.07854 8.00795 4.51111 9.28374 4.12956C10.569 3.74801 11.9734 3.55724 13.4967 3.55724C13.849 3.55724 14.2726 3.56213 14.7677 3.57191C15.2723 3.57191 15.7722 3.5768 16.2673 3.58659C16.7623 3.59637 17.2051 3.60615 17.5954 3.61594C17.9953 3.61594 18.2666 3.61594 18.4094 3.61594C18.5332 3.61594 18.6332 3.60615 18.7093 3.58659C18.795 3.55724 18.8617 3.52789 18.9093 3.49854C18.9664 3.46919 19.0093 3.44473 19.0378 3.42516C19.0664 3.39581 19.0902 3.38114 19.1092 3.38114C19.1568 3.38114 19.1997 3.41538 19.2378 3.48386C19.2854 3.54256 19.3234 3.62083 19.352 3.71866C19.3901 3.80671 19.4186 3.90944 19.4377 4.02684C19.4567 4.14423 19.4663 4.26163 19.4663 4.37903C19.4663 4.55513 19.4424 4.74101 19.3948 4.93668C19.3472 5.12256 19.2758 5.29377 19.1806 5.4503C19.0854 5.59705 18.9664 5.71934 18.8236 5.81717C18.6808 5.91501 18.5142 5.96392 18.3238 5.96392C18.219 5.96392 18.0238 5.96392 17.7382 5.96392C17.4621 5.95414 17.1432 5.94436 16.7814 5.93457C16.4196 5.92479 16.0388 5.91501 15.6389 5.90522C15.239 5.89544 14.8677 5.88566 14.5249 5.87587V22.9135Z" fill="white"/>
</g>
<path d="M29.2513 24.1521H29.1219C29.0013 24.4961 28.8375 24.8229 28.6306 25.1324C28.4409 25.4248 28.1909 25.6914 27.8806 25.9322C27.5875 26.173 27.2254 26.3622 26.7944 26.4998C26.3806 26.6374 25.8979 26.7062 25.3462 26.7062C23.9497 26.7062 22.8807 26.2504 22.1394 25.3388C21.398 24.4273 21.0273 23.1287 21.0273 21.4432V13.7744C21.0273 13.3077 21.4056 12.9295 21.8722 12.9295H23.4927C23.9593 12.9295 24.3376 13.3077 24.3376 13.7744V21.1078C24.3376 22.0366 24.5186 22.7503 24.8807 23.2491C25.2427 23.7307 25.8203 23.9715 26.6134 23.9715C26.941 23.9715 27.2599 23.9285 27.5703 23.8425C27.8978 23.7565 28.1823 23.6275 28.4237 23.4555C28.6651 23.2663 28.8633 23.0427 29.0185 22.7847C29.1737 22.5095 29.2513 22.1913 29.2513 21.8302V13.7744C29.2513 13.3077 29.6295 12.9295 30.0961 12.9295H31.7166C32.1832 12.9295 32.5615 13.3077 32.5615 13.7744V25.5517C32.5615 26.0183 32.1832 26.3966 31.7166 26.3966H30.0961C29.6295 26.3966 29.2513 26.0183 29.2513 25.5517V24.1521Z" fill="white"/>
<path d="M39.8257 26.3966C38.6878 26.3966 37.8172 26.1042 37.2137 25.5194C36.6275 24.9175 36.3344 24.0661 36.3344 22.9653V15.561H35.188C34.7214 15.561 34.3431 15.1827 34.3431 14.7161V13.7744C34.3431 13.3077 34.7214 12.9295 35.188 12.9295H35.3776C35.8776 12.9295 36.2137 12.8177 36.3862 12.5941C36.5758 12.3533 36.6706 12.0007 36.6706 11.5363V10.0851C36.6706 9.61848 37.0489 9.24022 37.5155 9.24022H38.7998C39.2664 9.24022 39.6447 9.61848 39.6447 10.0851V12.9295H41.567C42.0336 12.9295 42.4119 13.3077 42.4119 13.7744V14.7161C42.4119 15.1827 42.0336 15.561 41.567 15.561H39.6447V23.7651H41.3601C41.8267 23.7651 42.205 24.1434 42.205 24.61V25.5517C42.205 26.0183 41.8267 26.3966 41.3601 26.3966H39.8257Z" fill="white"/>
<path d="M49.7595 26.7062C48.794 26.7062 47.9234 26.5428 47.1475 26.216C46.3889 25.8892 45.7338 25.4162 45.182 24.7971C44.6476 24.1779 44.2338 23.4383 43.9407 22.5783C43.6476 21.7012 43.5011 20.7208 43.5011 19.6372C43.5011 18.5537 43.6476 17.5819 43.9407 16.7219C44.2338 15.862 44.6476 15.131 45.182 14.529C45.7338 13.9098 46.3889 13.4369 47.1475 13.1101C47.9234 12.7833 48.794 12.6199 49.7595 12.6199C50.725 12.6199 51.5957 12.7833 52.3715 13.1101C53.1473 13.4369 53.8025 13.9098 54.337 14.529C54.8887 15.131 55.3111 15.862 55.6042 16.7219C55.8973 17.5819 56.0438 18.5537 56.0438 19.6372C56.0438 20.7208 55.8973 21.7012 55.6042 22.5783C55.3111 23.4383 54.8887 24.1779 54.337 24.7971C53.8025 25.4162 53.1473 25.8892 52.3715 26.216C51.5957 26.5428 50.725 26.7062 49.7595 26.7062ZM49.7595 24.0489C50.6388 24.0489 51.3284 23.7823 51.8284 23.2491C52.3284 22.7159 52.5784 21.9334 52.5784 20.9014V18.3989C52.5784 17.3841 52.3284 16.6102 51.8284 16.077C51.3284 15.5438 50.6388 15.2772 49.7595 15.2772C48.8975 15.2772 48.2164 15.5438 47.7165 16.077C47.2165 16.6102 46.9665 17.3841 46.9665 18.3989V20.9014C46.9665 21.9334 47.2165 22.7159 47.7165 23.2491C48.2164 23.7823 48.8975 24.0489 49.7595 24.0489Z" fill="white"/>
<path d="M59.0475 26.3966C58.5809 26.3966 58.2026 26.0183 58.2026 25.5517V13.7744C58.2026 13.3077 58.5809 12.9295 59.0475 12.9295H60.668C61.1346 12.9295 61.5129 13.3077 61.5129 13.7744V15.7158H61.6422C61.7284 15.3546 61.8577 15.0106 62.0301 14.6838C62.2198 14.3398 62.4611 14.0388 62.7542 13.7809C63.0473 13.5229 63.3921 13.3165 63.7887 13.1617C64.2025 13.0069 64.6766 12.9295 65.2111 12.9295C65.611 12.9295 65.9352 13.2537 65.9352 13.6536V15.2063C65.9352 15.6729 65.5569 16.0512 65.0903 16.0512H64.9007C63.7801 16.0512 62.9353 16.2146 62.3663 16.5414C61.7974 16.8681 61.5129 17.4013 61.5129 18.1409V25.5517C61.5129 26.0183 61.1346 26.3966 60.668 26.3966H59.0475Z" fill="white"/>
<path d="M68.6312 26.3966C68.1645 26.3966 67.7863 26.0183 67.7863 25.5517V9.23372C67.7863 8.76711 68.1645 8.38885 68.6312 8.38885H75.9067C76.7343 8.38885 77.4757 8.52644 78.1308 8.80163C78.8032 9.05962 79.3722 9.43801 79.8377 9.93679C80.3032 10.4184 80.6566 11.0032 80.898 11.6911C81.1394 12.3791 81.26 13.1359 81.26 13.9614C81.26 14.8042 81.1394 15.5696 80.898 16.2576C80.6566 16.9283 80.3032 17.5131 79.8377 18.0119C79.3722 18.4935 78.8032 18.8719 78.1308 19.1471C77.4757 19.4051 76.7343 19.534 75.9067 19.534H71.2V25.5517C71.2 26.0183 70.8217 26.3966 70.3551 26.3966H68.6312ZM71.2 16.593H75.5964C76.2516 16.593 76.7688 16.421 77.1481 16.077C77.5274 15.7158 77.717 15.2084 77.717 14.5548V13.3681C77.717 12.7145 77.5274 12.2157 77.1481 11.8717C76.7688 11.5277 76.2516 11.3557 75.5964 11.3557H71.2V16.593Z" fill="white"/>
<path d="M86.6812 26.3966C85.5433 26.3966 84.7071 26.1128 84.1727 25.5452C83.6382 24.9776 83.371 24.1779 83.371 23.1459V8.15016C83.371 7.68355 83.7492 7.30529 84.2159 7.30529H85.8364C86.303 7.30529 86.6812 7.68355 86.6812 8.15016V23.7651H87.6208C88.0874 23.7651 88.4657 24.1434 88.4657 24.61V25.5517C88.4657 26.0183 88.0874 26.3966 87.6208 26.3966H86.6812Z" fill="white"/>
<path d="M100.128 26.3966C99.4036 26.3966 98.826 26.1902 98.395 25.7774C97.9812 25.3474 97.7226 24.7799 97.6192 24.0747H97.464C97.2399 24.9519 96.783 25.614 96.0933 26.0612C95.4037 26.4912 94.5503 26.7062 93.5331 26.7062C92.1538 26.7062 91.0935 26.345 90.3521 25.6226C89.6108 24.9003 89.2401 23.9371 89.2401 22.7331C89.2401 21.34 89.7401 20.308 90.7401 19.6372C91.74 18.9493 93.1624 18.6053 95.0072 18.6053H97.3088V17.6249C97.3088 16.8681 97.1106 16.2834 96.714 15.8706C96.3175 15.4578 95.6796 15.2514 94.8003 15.2514C94.0244 15.2514 93.3951 15.4234 92.9124 15.7674C92.7083 15.9107 92.5174 16.0672 92.3398 16.237C91.9748 16.5858 91.3925 16.6594 91.0159 16.3232L90.2967 15.6813C89.9862 15.4041 89.9184 14.9369 90.1875 14.6193C90.6191 14.1097 91.1395 13.6841 91.7486 13.3423C92.5762 12.8607 93.671 12.6199 95.033 12.6199C96.8606 12.6199 98.2485 13.0327 99.1967 13.8583C100.145 14.6838 100.619 15.8706 100.619 17.4185V23.7651H101.119C101.586 23.7651 101.964 24.1434 101.964 24.61V25.5517C101.964 26.0183 101.586 26.3966 101.119 26.3966H100.128ZM94.6451 24.3069C95.3865 24.3069 96.0158 24.1435 96.533 23.8167C97.0502 23.4899 97.3088 23.0083 97.3088 22.3719V20.5918H95.1882C93.4641 20.5918 92.6021 21.1422 92.6021 22.2429V22.6815C92.6021 23.2319 92.7745 23.6447 93.1193 23.9199C93.4814 24.1779 93.99 24.3069 94.6451 24.3069Z" fill="white"/>
<path d="M109.195 26.7062C108.195 26.7062 107.307 26.5428 106.531 26.216C105.755 25.8892 105.1 25.4162 104.565 24.7971C104.048 24.1779 103.652 23.4383 103.376 22.5783C103.1 21.7012 102.962 20.7208 102.962 19.6372C102.962 18.5537 103.1 17.5819 103.376 16.7219C103.652 15.862 104.048 15.131 104.565 14.529C105.1 13.9098 105.755 13.4369 106.531 13.1101C107.307 12.7833 108.195 12.6199 109.195 12.6199C110.557 12.6199 111.677 12.9209 112.557 13.5229C113.24 13.9816 113.778 14.5751 114.171 15.3035C114.382 15.6957 114.179 16.1668 113.772 16.3485L112.68 16.8362C112.207 17.0474 111.667 16.7718 111.368 16.349C111.236 16.1631 111.081 15.995 110.901 15.8448C110.488 15.4664 109.919 15.2772 109.195 15.2772C108.264 15.2772 107.565 15.5696 107.1 16.1544C106.652 16.7391 106.427 17.5045 106.427 18.4505V20.9014C106.427 21.8474 106.652 22.6127 107.1 23.1975C107.565 23.7651 108.264 24.0489 109.195 24.0489C109.988 24.0489 110.6 23.8511 111.031 23.4555C111.255 23.2405 111.454 22.9999 111.627 22.7336C111.893 22.3242 112.412 22.1118 112.853 22.3225L113.874 22.8111C114.27 23.0004 114.461 23.465 114.26 23.8553C113.829 24.6956 113.252 25.3535 112.531 25.829C111.617 26.4138 110.505 26.7062 109.195 26.7062Z" fill="white"/>
<path d="M121.681 26.7062C120.681 26.7062 119.784 26.5428 118.991 26.216C118.215 25.872 117.552 25.399 117 24.7971C116.465 24.1779 116.052 23.4383 115.758 22.5783C115.465 21.7012 115.319 20.7208 115.319 19.6372C115.319 18.5709 115.457 17.6077 115.733 16.7477C116.026 15.8878 116.439 15.1568 116.974 14.5548C117.508 13.9356 118.164 13.4627 118.939 13.1359C119.715 12.7919 120.595 12.6199 121.577 12.6199C122.629 12.6199 123.543 12.8005 124.319 13.1617C125.094 13.5229 125.732 14.013 126.232 14.6322C126.732 15.2514 127.103 15.9738 127.344 16.7993C127.603 17.6077 127.732 18.4763 127.732 19.4051V19.6437C127.732 20.1103 127.354 20.4886 126.887 20.4886H118.758V20.824C118.758 21.8044 119.034 22.5955 119.586 23.1975C120.138 23.7823 120.957 24.0747 122.043 24.0747C122.87 24.0747 123.543 23.9027 124.06 23.5587C124.321 23.3908 124.567 23.2004 124.799 22.9874C125.188 22.6313 125.806 22.6035 126.158 22.9954L126.814 23.7258C127.079 24.0202 127.109 24.4641 126.839 24.7533C126.343 25.2843 125.727 25.7202 124.991 26.0612C124.043 26.4912 122.939 26.7062 121.681 26.7062ZM121.629 15.0966C120.75 15.0966 120.051 15.389 119.534 15.9738C119.017 16.5586 118.758 17.3153 118.758 18.2441V18.4505H124.293V18.2183C124.293 17.2895 124.06 16.5414 123.594 15.9738C123.146 15.389 122.491 15.0966 121.629 15.0966Z" fill="white"/>
<defs>
<filter id="filter0_d_5775_2064" x="0.240551" y="0.695275" width="23.0111" height="28.7493" filterUnits="userSpaceOnUse" color-interpolation-filters="sRGB">
<feFlood flood-opacity="0" result="BackgroundImageFix"/>
<feColorMatrix in="SourceAlpha" type="matrix" values="0 0 0 0 0 0 0 0 0 0 0 0 0 0 0 0 0 0 127 0" result="hardAlpha"/>
<feOffset dy="0.0735853"/>
<feGaussianBlur stdDeviation="1.37972"/>
<feComposite in2="hardAlpha" operator="out"/>
<feColorMatrix type="matrix" values="0 0 0 0 0 0 0 0 0 0 0 0 0 0 0 0 0 0 0.25 0"/>
<feBlend mode="normal" in2="BackgroundImageFix" result="effect1_dropShadow_5775_2064"/>
<feBlend mode="normal" in="SourceGraphic" in2="effect1_dropShadow_5775_2064" result="shape"/>
</filter>
</defs>
</svg>
