<svg width="26" height="17" viewBox="0 0 26 17" fill="none" xmlns="http://www.w3.org/2000/svg">
<path d="M23.8626 16.8265H2.19596C1.27582 16.8265 0.529297 16.0799 0.529297 15.1598V1.82646C0.529297 0.906318 1.27582 0.15979 2.19596 0.15979H23.8626C24.7828 0.15979 25.5293 0.906318 25.5293 1.82646V15.1598C25.5293 16.0799 24.7828 16.8265 23.8626 16.8265ZM20.3099 13.8535C20.3071 13.8535 20.3036 13.8535 20.3001 13.8535C20.1001 13.8535 19.9203 13.939 19.7946 14.0751L19.7939 14.0758C19.6626 14.2202 19.5821 14.4126 19.5821 14.6237C19.5821 14.8348 19.6626 15.0278 19.7946 15.1723L19.7939 15.1716C19.9203 15.3084 20.1001 15.3938 20.3001 15.3938H20.3099C20.3203 15.3945 20.3328 15.3952 20.3453 15.3952C20.5217 15.3952 20.6779 15.3098 20.7751 15.1785L20.7758 15.1772V15.3619H21.0904V13.3001H20.7758V14.0709C20.6744 13.9383 20.5161 13.8528 20.3376 13.8528C20.3279 13.8528 20.3182 13.8528 20.3085 13.8535H20.3099ZM17.3585 13.8535C17.3536 13.8535 17.348 13.8535 17.3425 13.8535C17.1418 13.8535 16.9605 13.9369 16.8321 14.0709C16.7008 14.2174 16.6203 14.4112 16.6203 14.6244C16.6203 14.8376 16.7008 15.032 16.8328 15.1785L16.8321 15.1778C16.9612 15.3119 17.1425 15.3952 17.3432 15.3952H17.3599C17.3696 15.3959 17.3793 15.3959 17.3904 15.3959C17.5647 15.3959 17.7189 15.3105 17.8133 15.1792L17.8147 15.1778V15.3626H18.1411V13.8973H17.8154V14.0709C17.7161 13.9383 17.5592 13.8528 17.3828 13.8528C17.3744 13.8528 17.3661 13.8528 17.3585 13.8535ZM15.9362 13.8535C15.9272 13.8528 15.9175 13.8528 15.9071 13.8528C15.4814 13.8528 15.1362 14.198 15.1362 14.6237C15.1362 15.0494 15.4814 15.3945 15.9071 15.3945C15.9175 15.3945 15.9279 15.3945 15.9376 15.3938H15.9362C15.9446 15.3938 15.9543 15.3945 15.9647 15.3945C16.1522 15.3945 16.3237 15.3292 16.4592 15.2195L16.4578 15.2209L16.3057 14.9605C16.2092 15.0369 16.0869 15.0855 15.9543 15.091H15.9529C15.9446 15.0917 15.9342 15.0917 15.9244 15.0917C15.8001 15.0917 15.6876 15.0417 15.6057 14.9605C15.5286 14.8709 15.4814 14.7528 15.4814 14.6244C15.4814 14.4959 15.5286 14.3778 15.6064 14.2876L15.6057 14.2883C15.6835 14.2077 15.7918 14.1577 15.9119 14.1577H15.9265H15.9258C16.0696 14.1584 16.2015 14.207 16.3071 14.289L16.3057 14.2876L16.4578 14.0272C16.3203 13.9181 16.1446 13.8528 15.9536 13.8528C15.948 13.8528 15.9418 13.8535 15.9362 13.8535ZM13.1029 13.8535C13.0974 13.8535 13.0918 13.8535 13.0855 13.8535C12.8869 13.8535 12.7085 13.9369 12.5821 14.0709C12.4543 14.2091 12.3751 14.3945 12.3751 14.5987C12.3751 14.6084 12.3751 14.6181 12.3758 14.6278V14.6265C12.3751 14.6362 12.3751 14.6473 12.3751 14.6584C12.3751 14.8633 12.4564 15.0494 12.5876 15.1855C12.7196 15.3167 12.9015 15.3973 13.1022 15.3973C13.1099 15.3973 13.1182 15.3973 13.1258 15.3966H13.1244C13.1328 15.3966 13.1432 15.3973 13.1529 15.3973C13.3703 15.3973 13.5689 15.3188 13.723 15.189L13.7217 15.1903L13.5696 14.9522C13.4571 15.0515 13.3092 15.1133 13.1474 15.1147C13.1362 15.1153 13.123 15.116 13.1105 15.116C12.9015 15.116 12.7286 14.9598 12.7022 14.7584V14.7563H13.798V14.6265C13.7987 14.6153 13.7987 14.6028 13.7987 14.5903C13.7987 14.3897 13.7244 14.2063 13.6015 14.0667L13.6022 14.0674C13.4828 13.9355 13.3105 13.8528 13.1189 13.8528C13.114 13.8528 13.1085 13.8528 13.1036 13.8528L13.1029 13.8535ZM10.9661 13.8973V14.1903H11.2696V14.8528C11.2696 15.2126 11.4411 15.3952 11.7793 15.3952H11.7911C11.9314 15.3952 12.0612 15.3535 12.1703 15.2827L12.1675 15.2841L12.08 15.0126C11.9987 15.0591 11.9015 15.0869 11.798 15.089C11.6605 15.089 11.5904 15.0091 11.5904 14.8508V14.191H12.1112V13.898H11.5904V13.4535H11.2647V13.898L10.9661 13.8973ZM9.60013 14.9598L9.45916 15.2098C9.63069 15.3258 9.8418 15.3945 10.0689 15.3945H10.0897H10.0883C10.1022 15.3952 10.1182 15.3959 10.1342 15.3959C10.3001 15.3959 10.455 15.3466 10.5849 15.2619L10.5814 15.264C10.6897 15.1897 10.7605 15.066 10.7605 14.9258C10.7605 14.9223 10.7605 14.9195 10.7605 14.916C10.7605 14.6716 10.589 14.5278 10.2508 14.4827L10.0994 14.4605C9.93277 14.432 9.84943 14.3813 9.84943 14.3091C9.84943 14.2008 9.94041 14.1466 10.121 14.1466H10.1244C10.2946 14.1466 10.4543 14.191 10.5925 14.2688L10.5876 14.266L10.7182 14.0056C10.5585 13.9098 10.3654 13.8528 10.1592 13.8528C10.146 13.8528 10.1321 13.8528 10.1189 13.8535H10.121C10.1099 13.8528 10.0967 13.8528 10.0835 13.8528C9.93069 13.8528 9.78902 13.9022 9.67444 13.9855L9.67652 13.9841C9.57721 14.0619 9.51402 14.182 9.51402 14.3174V14.332V14.3313C9.51402 14.5688 9.68555 14.7112 10.0237 14.7542L10.1647 14.7765C10.3376 14.8056 10.4251 14.8563 10.4251 14.9285C10.4251 15.0508 10.314 15.1133 10.0883 15.1133C10.0862 15.1133 10.0842 15.1133 10.0821 15.1133C9.90152 15.1133 9.73416 15.0563 9.59735 14.9591L9.60013 14.9612V14.9598ZM8.36263 13.8528C8.35777 13.8528 8.35152 13.8528 8.34527 13.8528C8.14735 13.8528 7.96819 13.9362 7.84249 14.0702C7.71402 14.2174 7.63555 14.4119 7.63555 14.6237C7.63555 14.8355 7.71402 15.0299 7.84319 15.1785L7.84249 15.1778C7.96888 15.3119 8.14735 15.3952 8.34596 15.3952H8.36402C8.37235 15.3959 8.38138 15.3959 8.3918 15.3959C8.57027 15.3959 8.7293 15.3112 8.82999 15.1792L8.83069 15.1778V15.3626H9.14527V13.8973H8.83069V14.0709C8.72166 13.9376 8.55777 13.8535 8.37374 13.8535C8.37027 13.8535 8.3668 13.8528 8.36263 13.8528ZM18.5626 13.8966V15.3619H18.8772V14.5376C18.8772 14.2862 18.9828 14.1584 19.1918 14.1584H19.1987C19.2675 14.1584 19.3328 14.1744 19.3904 14.2028L19.3876 14.2015L19.4849 13.8973C19.4237 13.8695 19.3529 13.8535 19.2779 13.8535C19.2703 13.8535 19.2633 13.8535 19.2557 13.8542H19.2571C19.2536 13.8542 19.2494 13.8542 19.2453 13.8542C19.0876 13.8542 18.9501 13.941 18.8786 14.0695L18.8772 14.0716V13.898L18.5626 13.8966ZM14.1251 13.8966V15.3619H14.4508V14.5376C14.4508 14.2862 14.5564 14.1584 14.7654 14.1584H14.7724C14.8411 14.1584 14.9064 14.1744 14.964 14.2028L14.9612 14.2015L15.0592 13.8973C14.9953 13.8695 14.9217 13.8535 14.8439 13.8535C14.8397 13.8535 14.8355 13.8535 14.8307 13.8535C14.8272 13.8535 14.823 13.8535 14.8189 13.8535C14.6612 13.8535 14.5244 13.9403 14.4529 14.0688L14.4515 14.0709V13.8973L14.1251 13.8966ZM6.70291 14.157C6.91888 14.157 7.0286 14.2883 7.0286 14.5459V15.3598H7.3543V14.4376C7.3543 14.4306 7.35499 14.423 7.35499 14.4147C7.35499 14.2619 7.29457 14.1237 7.19666 14.0216C7.08624 13.9181 6.93694 13.8549 6.77374 13.8549C6.77166 13.8549 6.76957 13.8549 6.76749 13.8549C6.75707 13.8542 6.74457 13.8535 6.73207 13.8535C6.53346 13.8535 6.35846 13.957 6.25916 14.1133L6.25777 14.1153C6.16541 13.9577 5.99735 13.8535 5.8043 13.8535C5.79249 13.8535 5.77999 13.8542 5.76819 13.8549H5.76957C5.76749 13.8549 5.76541 13.8549 5.76332 13.8549C5.5918 13.8549 5.43971 13.9403 5.34735 14.0709L5.34596 14.0723V13.8987H5.02166V15.364H5.34735V14.5487C5.34735 14.2896 5.46819 14.1598 5.70569 14.1598C5.92166 14.1598 6.03138 14.291 6.03138 14.5487V15.3626H6.34596V14.5487C6.34596 14.289 6.4668 14.1598 6.7036 14.1598L6.70291 14.157ZM16.4362 1.54868C16.4293 1.54868 16.4217 1.54868 16.4133 1.54868C15.2849 1.54868 14.2369 1.89312 13.3682 2.4834L13.3869 2.4716C14.2869 3.20493 14.9599 4.18618 15.3022 5.31118L15.3133 5.35285C15.4772 5.87021 15.571 6.46465 15.571 7.08201C15.571 7.69243 15.4786 8.28062 15.3078 8.83479L15.3189 8.79312C14.9689 9.9584 14.2932 10.9369 13.398 11.6528L13.3869 11.6619C14.2425 12.2397 15.2974 12.5841 16.4321 12.5841C17.2099 12.5841 17.9494 12.4223 18.6196 12.1306L18.5842 12.1445C19.9161 11.5799 20.955 10.541 21.5057 9.24521L21.5189 9.20979C21.7967 8.57784 21.9585 7.84104 21.9585 7.06673C21.9585 6.29243 21.7967 5.55562 21.505 4.88896L21.5189 4.92368C20.9543 3.59104 19.9126 2.55215 18.614 2.00354L18.5786 1.99035C17.9487 1.71257 17.2147 1.55076 16.4432 1.55076C16.4404 1.55076 16.4383 1.55076 16.4355 1.55076L16.4362 1.54868ZM9.62235 1.54868C9.62027 1.54868 9.61749 1.54868 9.61471 1.54868C8.84319 1.54868 8.10846 1.71048 7.44457 2.00146L7.4793 1.98757C6.14388 2.54937 5.10291 3.58896 4.55152 4.88687L4.53832 4.92229C4.26055 5.55423 4.09874 6.29104 4.09874 7.06535C4.09874 7.83965 4.26055 8.57646 4.55221 9.24312L4.53832 9.2084C5.10291 10.5403 6.1418 11.5792 7.43763 12.1299L7.47305 12.1431C8.10777 12.4209 8.84805 12.5827 9.62513 12.5827C10.7605 12.5827 11.8147 12.2383 12.6897 11.648L12.6703 11.6605C11.7654 10.9306 11.0897 9.94798 10.7494 8.8209L10.739 8.77993C10.58 8.26882 10.4883 7.68132 10.4883 7.07229C10.4883 5.2216 11.3342 3.56812 12.6605 2.47785L12.671 2.46951C11.8217 1.89173 10.7737 1.54729 9.64527 1.54729C9.63694 1.54729 9.6286 1.54729 9.62027 1.54729H9.62166L9.62235 1.54868ZM13.0293 2.73132C12.1564 3.40979 11.5043 4.3334 11.173 5.39937L11.1626 5.43757C11.0043 5.92715 10.9126 6.49104 10.9126 7.07576C10.9126 7.65493 11.0022 8.21257 11.1682 8.73687L11.1578 8.69798C11.4974 9.80285 12.1522 10.7265 13.0168 11.3917L13.0293 11.4008C13.9064 10.7265 14.5612 9.80285 14.8911 8.73618L14.9015 8.69868C15.0571 8.21326 15.1467 7.65493 15.1467 7.07576C15.1467 6.49035 15.055 5.92715 14.8862 5.39798L14.8967 5.43687C14.555 4.33271 13.9029 3.4091 13.0425 2.73965L13.03 2.73062L13.0293 2.73132ZM20.3529 15.0903C20.3494 15.0903 20.3453 15.0903 20.3411 15.0903C20.2196 15.0903 20.1099 15.0383 20.0335 14.9549C19.9557 14.8674 19.9085 14.7508 19.9085 14.6237C19.9085 14.4966 19.9557 14.3806 20.0342 14.2917L20.0335 14.2924C20.1147 14.2084 20.2279 14.1563 20.3536 14.1563C20.4793 14.1563 20.5932 14.2084 20.6737 14.2924C20.7508 14.3813 20.798 14.498 20.798 14.6258C20.798 14.7535 20.7508 14.8702 20.673 14.9598L20.6737 14.9591C20.596 15.0403 20.4862 15.0903 20.3654 15.0903C20.3612 15.0903 20.3571 15.0903 20.3529 15.0903ZM17.3911 15.0903C17.3862 15.0903 17.3814 15.0903 17.3758 15.0903C17.2578 15.0903 17.1515 15.0403 17.0765 14.9605C17.0022 14.8695 16.9571 14.7522 16.9571 14.6244C16.9571 14.4966 17.0022 14.3792 17.0772 14.2869L17.0765 14.2876C17.1515 14.207 17.2578 14.157 17.3758 14.157H17.3918H17.4036C17.5251 14.157 17.6349 14.2091 17.7105 14.2924C17.7883 14.3765 17.8355 14.489 17.8355 14.6126V14.6265V14.6258C17.8355 14.6313 17.8362 14.6383 17.8362 14.6445C17.8362 14.7667 17.7911 14.8778 17.7161 14.9633L17.7168 14.9626C17.6397 15.0417 17.5328 15.0903 17.414 15.0903C17.4064 15.0903 17.398 15.0903 17.3904 15.0897H17.3918L17.3911 15.0903ZM8.40638 15.0903C8.40013 15.0903 8.39319 15.091 8.38624 15.091C8.2661 15.091 8.15777 15.041 8.08138 14.9605C8.00707 14.8695 7.96194 14.7522 7.96194 14.6244C7.96194 14.4966 8.00707 14.3792 8.08207 14.2869L8.08138 14.2876C8.15846 14.207 8.2668 14.157 8.38694 14.157C8.39388 14.157 8.40152 14.157 8.40846 14.1577H8.42374C8.54249 14.1577 8.64944 14.2098 8.72235 14.2931L8.72305 14.2938C8.79666 14.3841 8.8418 14.5001 8.8418 14.6272C8.8418 14.7542 8.79666 14.8702 8.72235 14.9612L8.72305 14.9605C8.64805 15.041 8.5411 15.091 8.42235 15.091C8.41749 15.091 8.41194 15.091 8.40707 15.091H8.40777L8.40638 15.0903ZM13.4737 14.4931H12.7147C12.7321 14.2973 12.8953 14.1445 13.0946 14.1445C13.2939 14.1445 13.4571 14.2973 13.4744 14.4917V14.4931H13.4737Z" fill="white"/>
</svg>
