<svg width="50" height="33" viewBox="0 0 50 33" fill="none" xmlns="http://www.w3.org/2000/svg">
<path d="M47.4872 0.271973H2.67949C1.19872 0.271973 0 1.49633 0 3.00274V29.6886C0 31.195 1.19872 32.4194 2.67308 32.4194H47.4808C48.9551 32.4194 50.1539 31.195 50.1539 29.6886V3.00274C50.1603 1.49633 48.9615 0.271973 47.4872 0.271973ZM18.6603 22.5476H14.8141V15.2399C14.8141 15.0989 14.6987 14.9835 14.5577 14.9835C14.4295 14.9835 14.3269 15.0733 14.3077 15.195L12.0577 22.5476H9.29487L7.05128 15.1886C7.03205 15.0733 6.92949 14.9835 6.80128 14.9835C6.66026 14.9835 6.54487 15.0989 6.54487 15.2399V22.5476H2.69872V9.98351H6H6.98718C7.69231 9.98351 8.4359 10.5348 8.64103 11.2079L10.5128 17.3297C10.609 17.6374 10.7564 17.6309 10.8526 17.3297L12.7244 11.2079C12.9295 10.5284 13.6731 9.98351 14.3782 9.98351H15.359H18.6603V22.5476ZM32.9551 22.5476H29.109V15.0797C29.1026 14.9579 29.0064 14.8553 28.8782 14.8553C28.7885 14.8553 28.718 14.9002 28.6795 14.9771V14.9835C28.6795 14.9899 28.6731 14.9963 28.6731 15.0027L25.5321 21.7399C25.3333 22.1758 24.7949 22.5284 24.3077 22.554H20.4615V9.98992H24.3077V17.2976C24.3077 17.4386 24.4231 17.554 24.5641 17.554C24.6538 17.554 24.7308 17.5092 24.7756 17.445C24.7885 17.4194 24.8013 17.4002 24.8077 17.3681L27.8654 10.804C28.0705 10.3617 28.6218 10.0092 29.109 9.98992H32.9551V22.5476ZM43.0833 18.5092H38.7244V22.6117H34.8782V15.6886H47.0641C46.4744 17.3233 44.9167 18.4963 43.0833 18.5092ZM47.2244 15.0476C47.2244 15.0476 40.5449 15.0476 40.5385 15.0476C37.2692 15.0476 34.5897 12.8104 34.3654 9.98351H43.0705C45.4103 10.0027 47.3013 11.9002 47.3013 14.2463C47.3013 14.522 47.2756 14.7912 47.2244 15.0476Z" fill="white"/>
</svg>
