<svg width="158" height="156" viewBox="0 0 158 156" fill="none" xmlns="http://www.w3.org/2000/svg">
<rect width="128" height="127" rx="20" transform="matrix(0.965926 0.258819 -0.261904 0.965094 34 0)" fill="#2A3BD6"/>
<rect x="15" y="14" width="128" height="127" rx="20" fill="#4252E4"/>
<g clip-path="url(#clip0_101_10)">
<path d="M100.553 52C91.445 52 84.1387 59.4497 84.1387 68.6107C84.1387 73.2416 86.0404 77.5705 89.4433 80.6913L89.2431 80.7919C85.2397 82.5034 81.6366 84.0134 78.3337 88.1409C76.8324 79.0805 70.527 76.3624 67.3242 75.557C68.7254 71.0268 68.5252 66.7987 66.5235 63.2752C62.3199 55.4228 51.8108 53.1074 51.4104 53.0067C51.1102 52.906 50.8099 53.0067 50.5097 53.1074C30.9928 60.7584 34.1956 79.5839 34.1956 79.7852C34.1956 79.9866 34.2956 80.0872 34.3957 80.2886C34.8962 81.094 46.7064 100.926 75.6314 111.497C76.5322 111.799 77.4329 112 78.3337 112C79.6348 112 80.936 111.698 82.137 110.993C87.3415 107.973 97.0499 100.423 107.159 83.6107C115.566 79.9866 119.269 70.2215 115.566 61.7651C112.964 55.8255 107.059 52 100.553 52ZM80.6357 108.376C79.4347 109.081 77.9334 109.181 76.6322 108.678C50.5097 99.1141 38.5994 81.2953 37.0981 78.9799C36.7978 76.8658 35.5968 62.3691 51.1102 56.0268C53.0118 56.5302 60.7185 58.8456 63.8212 64.6846C65.5226 67.906 65.5226 71.8322 63.8212 76.2617C63.5209 77.0671 64.0213 77.9732 64.822 78.1745C64.9221 78.1745 65.1223 78.2752 65.2224 78.2752C65.6227 78.2752 75.6314 78.8792 75.6314 92.5705C75.6314 93.3758 76.332 94.0805 77.1327 94.0805C77.6331 94.0805 78.2336 93.7785 78.4338 93.2752C81.8367 87.1342 85.64 85.5235 90.3441 83.5101L92.1457 82.7047C94.6478 84.3154 97.5503 85.1208 100.553 85.1208C101.354 85.1208 102.154 85.0201 102.855 84.9195C93.3467 99.8188 84.439 106.161 80.6357 108.376ZM100.553 82.1007C93.1465 82.1007 87.1413 75.9597 87.1413 68.5101C87.1413 61.0604 93.2466 55.0201 100.653 55.0201C108.059 55.0201 114.065 61.0604 114.065 68.6107C114.065 76.0604 107.959 82.1007 100.553 82.1007Z" fill="white"/>
<path d="M100 61C96.1111 61 93 64.1111 93 68C93 71.8889 96.1111 75 100 75C103.889 75 107 71.8889 107 68C107 64.2083 103.889 61 100 61ZM100 72.0833C97.7639 72.0833 95.9167 70.2361 95.9167 68C95.9167 65.7639 97.7639 63.9167 100 63.9167C102.236 63.9167 104.083 65.7639 104.083 68C104.083 70.2361 102.236 72.0833 100 72.0833Z" fill="white"/>
</g>
<defs>
<clipPath id="clip0_101_10">
<rect width="84" height="67" fill="white" transform="translate(33 45)"/>
</clipPath>
</defs>
</svg>
