<svg width="158" height="157" viewBox="0 0 158 157" fill="none" xmlns="http://www.w3.org/2000/svg">
<rect x="34" width="128" height="128" rx="20" transform="rotate(15 34 0)" fill="#2A3BD6"/>
<rect x="15" y="14" width="128" height="128" rx="20" fill="#4252E4"/>
<g clip-path="url(#clip0_101_12)">
<path d="M106.838 51H52.1547C49.3136 51 47 53.2941 47 56.1112V92.4198C47 95.2369 49.3136 97.531 52.1547 97.531H106.845C109.686 97.531 112 95.2369 112 92.4198V56.1112C111.993 53.2941 109.679 51 106.838 51ZM109.961 92.4198C109.961 94.1281 108.561 95.5158 106.838 95.5158H52.1547C50.4318 95.5158 49.0323 94.1281 49.0323 92.4198V56.1112C49.0323 54.4028 50.4318 53.0152 52.1547 53.0152H106.845C108.568 53.0152 109.968 54.4028 109.968 56.1112V92.4198H109.961ZM90.052 72.721L70.7342 61.6618C70.1716 61.341 69.4965 61.341 68.9409 61.6618C68.3783 61.9825 68.0408 62.5613 68.0408 63.2028V85.3212C68.0408 85.9627 68.3783 86.5415 68.9409 86.8623C69.2222 87.0226 69.5316 87.1063 69.8411 87.1063C70.1505 87.1063 70.4599 87.0226 70.7412 86.8623L90.0591 75.803C90.6217 75.4823 90.9522 74.9035 90.9522 74.262C90.9522 73.6205 90.6146 73.0417 90.052 72.721ZM70.0731 84.9238V63.6072L88.6948 74.269L70.0731 84.9238ZM64.7215 100.864C62 100.864 59.7285 102.789 59.2152 105.334H48.0127V107.349H59.1871C59.6301 109.985 61.9367 112 64.7215 112C67.4993 112 69.8129 109.985 70.256 107.349H110.98V105.334H70.2278C69.7145 102.789 67.443 100.864 64.7215 100.864ZM64.7215 109.985C62.7454 109.985 61.135 108.388 61.135 106.429C61.135 104.469 62.7454 102.872 64.7215 102.872C66.6976 102.872 68.308 104.469 68.308 106.429C68.308 108.395 66.6976 109.985 64.7215 109.985Z" fill="white"/>
</g>
<defs>
<clipPath id="clip0_101_12">
<rect width="67" height="68" fill="white" transform="translate(46 45)"/>
</clipPath>
</defs>
</svg>
