<svg width="158" height="157" viewBox="0 0 158 157" fill="none" xmlns="http://www.w3.org/2000/svg">
<rect x="34" width="128" height="128" rx="20" transform="rotate(15 34 0)" fill="#2A3BD6"/>
<rect x="15" y="14" width="128" height="128" rx="20" fill="#4252E4"/>
<g clip-path="url(#clip0_101_11)">
<path d="M95.75 110H64.25C58.8813 109.994 53.7343 107.796 49.938 103.888C46.1417 99.9811 44.0063 94.6836 44 89.1579C44 88.8508 44.1185 88.5563 44.3295 88.3391C44.5405 88.122 44.8266 88 45.125 88H114.875C115.173 88 115.46 88.122 115.67 88.3391C115.881 88.5563 116 88.8508 116 89.1579C115.994 94.6836 113.858 99.9811 110.062 103.888C106.266 107.796 101.119 109.994 95.75 110ZM46.2849 90.3158C46.5766 95.0176 48.5956 99.429 51.932 102.655C55.2685 105.88 59.6725 107.678 64.25 107.684H95.75C100.328 107.678 104.731 105.88 108.068 102.655C111.404 99.429 113.423 95.0176 113.715 90.3158H46.2849Z" fill="white"/>
<path d="M75.751 86.9962C75.6874 86.9965 75.6239 86.9912 75.5613 86.9804C75.2625 86.9311 74.9958 86.767 74.8199 86.5242C74.644 86.2813 74.5732 85.9797 74.6231 85.6855C74.7682 84.8784 74.7313 84.0499 74.515 83.2585C74.2987 82.467 73.9083 81.7321 73.3714 81.1057C72.8345 80.4794 72.1643 79.9769 71.4083 79.6339C70.6523 79.2909 69.8289 79.1158 68.9965 79.1209L68.8559 79.1288C68.6791 79.1335 68.5036 79.0973 68.3437 79.023C68.1837 78.9488 68.0437 78.8385 67.9349 78.7012C67.8256 78.5647 67.7499 78.405 67.7138 78.2348C67.6777 78.0646 67.6822 77.8884 67.7269 77.7202C67.8061 77.4436 67.8487 77.1581 67.8538 76.8708C67.8538 75.9757 67.4926 75.1172 66.8497 74.4842C66.2068 73.8513 65.3348 73.4957 64.4256 73.4957C63.8009 73.4976 63.1892 73.671 62.659 73.9963C62.4101 74.1455 62.1127 74.1953 61.8276 74.1357C61.5426 74.0761 61.2914 73.9116 61.1255 73.6757C60.4329 72.69 59.4386 71.9478 58.2876 71.5574C57.1365 71.167 55.8889 71.1489 54.7266 71.5055C53.5643 71.8622 52.5482 72.575 51.8262 73.5401C51.1043 74.5053 50.7143 75.6722 50.7132 76.8708C50.7147 77.2197 50.7487 77.5676 50.8149 77.9103C50.8693 78.1959 50.8094 78.4911 50.6478 78.7341C50.4861 78.9772 50.2352 79.1492 49.9476 79.2143C49.3312 79.3491 48.7651 79.6503 48.3127 80.084C47.8603 80.5177 47.5396 81.0669 47.3863 81.67C47.233 82.2731 47.2534 82.9063 47.445 83.4987C47.6366 84.0911 47.992 84.6192 48.4712 85.024C48.5851 85.1209 48.6784 85.2391 48.7458 85.3717C48.8131 85.5042 48.8532 85.6486 48.8637 85.7965C48.8742 85.9443 48.855 86.0928 48.807 86.2333C48.759 86.3738 48.6833 86.5036 48.5843 86.6152C48.4852 86.7269 48.3647 86.8181 48.2297 86.8837C48.0947 86.9494 47.9479 86.9881 47.7976 86.9977C47.6474 87.0072 47.4967 86.9875 47.3542 86.9395C47.2117 86.8916 47.0803 86.8164 46.9674 86.7183C46.2382 86.0977 45.6813 85.3049 45.3488 84.4142C45.0164 83.5235 44.9195 82.5642 45.0671 81.6265C45.2147 80.6887 45.6021 79.8034 46.1927 79.0535C46.7834 78.3037 47.558 77.714 48.4438 77.3399C48.4335 77.1813 48.4278 77.0261 48.4278 76.8708C48.4287 75.276 48.9214 73.7191 49.8407 72.406C50.7599 71.0929 52.0624 70.0855 53.5759 69.5172C55.0893 68.9488 56.7424 68.8462 58.3163 69.2229C59.8903 69.5996 61.311 70.438 62.3905 71.627C63.0389 71.3763 63.7291 71.247 64.4256 71.2456C65.9404 71.2474 67.3926 71.8406 68.4637 72.8952C69.5348 73.9497 70.1373 75.3795 70.1392 76.8708C70.1392 76.8967 70.1392 76.9248 70.1392 76.9507C71.1972 77.0952 72.2148 77.4481 73.1313 77.9883C74.0477 78.5285 74.8443 79.2448 75.4735 80.0946C76.1027 80.9445 76.5516 81.9104 76.7935 82.9347C77.0353 83.959 77.0651 85.0208 76.8811 86.0567C76.8364 86.3198 76.6982 86.5587 76.4912 86.7307C76.2842 86.9028 76.0219 86.9969 75.751 86.9962Z" fill="white"/>
<path d="M57.75 81C57.4185 81 57.1005 80.8683 56.8661 80.6339C56.6317 80.3995 56.5 80.0815 56.5 79.75C56.5 79.4185 56.3683 79.1005 56.1339 78.8661C55.8995 78.6317 55.5815 78.5 55.25 78.5C54.9185 78.5 54.6005 78.3683 54.3661 78.1339C54.1317 77.8995 54 77.5815 54 77.25C54 76.9185 54.1317 76.6005 54.3661 76.3661C54.6005 76.1317 54.9185 76 55.25 76C56.2446 76 57.1984 76.3951 57.9017 77.0983C58.6049 77.8016 59 78.7554 59 79.75C59 80.0815 58.8683 80.3995 58.6339 80.6339C58.3995 80.8683 58.0815 81 57.75 81Z" fill="white"/>
<path d="M61.1667 86C60.8572 86 60.5605 85.8771 60.3417 85.6583C60.1229 85.4395 60 85.1428 60 84.8333C60.0019 83.2868 60.617 81.8042 61.7106 80.7106C62.8042 79.617 64.2868 79.0019 65.8333 79C66.1428 79 66.4395 79.1229 66.6583 79.3417C66.8771 79.5605 67 79.8572 67 80.1667C67 80.4761 66.8771 80.7728 66.6583 80.9916C66.4395 81.2104 66.1428 81.3333 65.8333 81.3333C64.9051 81.3333 64.0148 81.7021 63.3585 82.3585C62.7021 83.0148 62.3333 83.9051 62.3333 84.8333C62.3333 85.1428 62.2104 85.4395 61.9916 85.6583C61.7728 85.8771 61.4761 86 61.1667 86Z" fill="white"/>
<path d="M101.47 87C101.225 87 100.986 86.922 100.788 86.7769C100.589 86.6319 100.44 86.4272 100.363 86.1919C100.285 85.9566 100.283 85.7026 100.356 85.4658C100.429 85.229 100.574 85.0216 100.77 84.8727C101.358 84.4382 101.836 83.8692 102.165 83.212C102.495 82.5549 102.667 81.8281 102.667 81.0909C102.667 79.8372 102.175 78.6348 101.3 77.7482C100.425 76.8617 99.2377 76.3636 98 76.3636C96.7623 76.3636 95.5753 76.8617 94.7002 77.7482C93.825 78.6348 93.3333 79.8372 93.3333 81.0909C93.333 81.828 93.5046 82.5547 93.834 83.2119C94.1635 83.8691 94.6415 84.4381 95.2292 84.8727C95.4767 85.0608 95.6404 85.3408 95.6841 85.651C95.7279 85.9613 95.6482 86.2765 95.4625 86.5273C95.2769 86.778 95.0005 86.9438 94.6942 86.9881C94.3879 87.0324 94.0767 86.9517 93.8292 86.7636C92.9508 86.1098 92.2369 85.2554 91.7453 84.2698C91.2538 83.2842 90.9984 82.1951 91 81.0909C91 79.2103 91.7375 77.4067 93.0503 76.0769C94.363 74.7471 96.1435 74 98 74C99.8565 74 101.637 74.7471 102.95 76.0769C104.263 77.4067 105 79.2103 105 81.0909C105.001 82.1956 104.745 83.285 104.252 84.2707C103.76 85.2563 103.044 86.1104 102.165 86.7636C101.964 86.9161 101.72 86.999 101.47 87Z" fill="white"/>
<path d="M115.999 62.1292C115.999 61.8297 115.882 61.5425 115.674 61.3307C115.466 61.119 115.183 61 114.889 61C114.594 61 114.312 61.119 114.103 61.3307C113.895 61.5425 113.778 61.8297 113.778 62.1292C113.79 62.7577 113.674 63.382 113.436 63.9624C113.198 64.5428 112.845 65.0667 112.398 65.5009C110.902 64.3278 109.037 63.7478 107.152 63.8691C105.266 63.9905 103.489 64.8048 102.15 66.1603C100.852 67.2744 99.281 68.009 97.6044 68.2854C94.58 68.8819 91.7929 70.3639 89.5858 72.5492C87.8439 74.3089 86.6673 76.564 86.2113 79.0172C85.7553 81.4705 86.0412 84.0066 87.0314 86.2913C87.118 86.4929 87.2606 86.6645 87.4417 86.7848C87.6228 86.9052 87.8346 86.9691 88.051 86.9688C88.2039 86.9696 88.3552 86.9376 88.4952 86.8751C88.7653 86.7558 88.9777 86.5324 89.0857 86.2539C89.1938 85.9755 89.1887 85.6648 89.0716 85.3902C88.2607 83.521 88.0257 81.446 88.3977 79.4383C88.7696 77.4307 89.731 75.5848 91.1551 74.1436C93.0912 72.2463 95.5319 70.9677 98.1752 70.4659C100.236 70.1071 102.157 69.1683 103.719 67.7559C104.762 66.699 106.174 66.1055 107.646 66.1055C109.118 66.1055 110.53 66.699 111.572 67.7559C112.612 68.8157 113.196 70.2513 113.196 71.7481C113.196 73.2448 112.612 74.6804 111.572 75.7403C110.184 77.3301 109.261 79.283 108.907 81.3782C108.596 82.7414 108.145 84.0679 107.563 85.336C107.493 85.4692 107.449 85.6154 107.435 85.766C107.422 85.9165 107.438 86.0684 107.483 86.2125C107.528 86.3567 107.601 86.4901 107.697 86.605C107.794 86.7199 107.913 86.8139 108.046 86.8814C108.179 86.9488 108.324 86.9884 108.472 86.9978C108.621 87.0072 108.77 86.9862 108.91 86.936C109.05 86.8858 109.179 86.8075 109.289 86.7057C109.399 86.6038 109.488 86.4806 109.55 86.3432C110.2 84.9398 110.704 83.471 111.054 81.9609C111.327 80.2565 112.05 78.6593 113.145 77.3392C114.449 76.01 115.245 74.2522 115.391 72.3807C115.537 70.5091 115.022 68.6459 113.94 67.1247C114.603 66.481 115.128 65.7051 115.483 64.8455C115.837 63.9859 116.013 63.0611 115.999 62.1292Z" fill="white"/>
<path d="M89.428 63.28C88.7892 62.4917 87.9876 61.8574 87.0808 61.4225C86.1739 60.9875 85.184 60.7628 84.1821 60.7642H83.3266L85.2922 51.733C85.3246 51.5841 85.3279 51.4301 85.3021 51.2799C85.2762 51.1297 85.2216 50.9862 85.1414 50.8576C85.0612 50.7289 84.957 50.6176 84.8347 50.5301C84.7124 50.4426 84.5745 50.3805 84.4287 50.3475C84.2829 50.3144 84.1322 50.311 83.9851 50.3374C83.8381 50.3638 83.6975 50.4196 83.5716 50.5015C83.4456 50.5834 83.3366 50.6898 83.2509 50.8147C83.1652 50.9396 83.1045 51.0805 83.0721 51.2294L81.0008 60.7642H79.6374V49.1604C79.6374 48.8526 79.5176 48.5575 79.3046 48.3399C79.0915 48.1223 78.8025 48 78.5012 48C78.1998 48 77.9108 48.1223 77.6977 48.3399C77.4847 48.5575 77.365 48.8526 77.365 49.1604V60.7642H76.0015L73.9302 51.2294C73.8648 50.9287 73.6852 50.6668 73.4308 50.5015C73.1763 50.3361 72.868 50.2807 72.5736 50.3475C72.2792 50.4142 72.0228 50.5977 71.8609 50.8576C71.699 51.1174 71.6447 51.4323 71.7101 51.733L73.6757 60.7642H72.8202C71.8183 60.7638 70.8286 60.9889 69.9216 61.4235C69.0146 61.8581 68.2126 62.4915 67.5725 63.2787C66.9325 64.0658 66.4702 64.9874 66.2185 65.9778C65.9669 66.9682 65.9321 68.0031 66.1166 69.0088L66.3075 70.0531C66.3563 70.3192 66.4946 70.5595 66.6986 70.7325C66.9025 70.9054 67.1593 71 67.4244 71C67.4945 71.0001 67.5644 70.9939 67.6334 70.9814C67.7802 70.9535 67.9202 70.8964 68.0453 70.8132C68.1704 70.73 68.2783 70.6225 68.3627 70.4967C68.4471 70.371 68.5064 70.2295 68.5373 70.0803C68.5681 69.9311 68.5698 69.7771 68.5424 69.6273L68.3504 68.5829C68.2271 67.9123 68.2501 67.2221 68.4178 66.5616C68.5855 65.9011 68.8937 65.2865 69.3205 64.7615C69.7473 64.2365 70.2822 63.8141 70.8871 63.5243C71.492 63.2346 72.152 63.0846 72.8202 63.085H84.1821C84.7788 63.0832 85.3699 63.2021 85.9213 63.4349C86.4727 63.6676 86.9734 64.0097 87.3946 64.4413C87.8158 64.8729 88.1491 65.3854 88.3753 65.9493C88.6014 66.5132 88.7159 67.1172 88.7122 67.7266H80.7736C80.4722 67.7266 80.1832 67.8488 79.9701 68.0664C79.7571 68.284 79.6374 68.5792 79.6374 68.8869C79.6374 69.1947 79.7571 69.4898 79.9701 69.7075C80.1832 69.9251 80.4722 70.0473 80.7736 70.0473H89.3564C89.8631 70.0473 90.7312 69.8152 90.8482 69.1921L90.8812 69.0099C91.0678 68.0045 91.0343 66.9694 90.783 65.9787C90.5318 64.9881 90.069 64.0664 89.428 63.28Z" fill="white"/>
<path d="M84.8 75H81.2C80.8817 75 80.5765 74.8946 80.3515 74.7071C80.1264 74.5196 80 74.2652 80 74C80 73.7348 80.1264 73.4804 80.3515 73.2929C80.5765 73.1054 80.8817 73 81.2 73H84.8C85.1183 73 85.4235 73.1054 85.6485 73.2929C85.8736 73.4804 86 73.7348 86 74C86 74.2652 85.8736 74.5196 85.6485 74.7071C85.4235 74.8946 85.1183 75 84.8 75Z" fill="white"/>
<path d="M83.75 81H81.25C80.9185 81 80.6005 80.8946 80.3661 80.7071C80.1317 80.5196 80 80.2652 80 80C80 79.7348 80.1317 79.4804 80.3661 79.2929C80.6005 79.1054 80.9185 79 81.25 79H83.75C84.0815 79 84.3995 79.1054 84.6339 79.2929C84.8683 79.4804 85 79.7348 85 80C85 80.2652 84.8683 80.5196 84.6339 80.7071C84.3995 80.8946 84.0815 81 83.75 81Z" fill="white"/>
</g>
<defs>
<clipPath id="clip0_101_11">
<rect width="72" height="62" fill="white" transform="translate(44 48)"/>
</clipPath>
</defs>
</svg>
