<svg width="38" height="43" viewBox="0 0 38 43" fill="none" xmlns="http://www.w3.org/2000/svg">
<path d="M18.1544 1.56722L15.5184 0L15.0163 3.00782C14.2171 7.75723 10.9472 12.1704 7.34043 15.2716C0.279631 21.3454 -1.26642 27.9464 0.919811 33.3953C3.0119 38.6097 8.32162 42.1801 13.7108 42.7758L14.9577 42.9128C11.874 41.0425 9.89487 36.673 10.5853 33.4078C11.2673 30.1986 13.5937 27.1929 18.0624 24.4196L20.3156 23.0247L21.1566 25.526C21.6524 27.004 22.5102 28.1913 23.3826 29.3973C23.801 29.9786 24.2257 30.566 24.6148 31.1908C25.96 33.36 26.3157 35.7721 25.4475 38.1655C24.6567 40.3409 23.3512 42.0514 21.5562 43L23.5855 42.7758C28.6442 42.2174 32.3576 40.5007 34.7698 37.6299C37.1611 34.784 38 31.1202 38 27.2198C38 23.5872 36.4958 19.8425 34.7217 16.7267C32.6422 13.0775 29.9287 10.0468 26.9663 7.10958C26.4538 8.12672 26.4935 8.53773 25.4391 10.1714C24.0704 6.56322 21.5002 3.52745 18.1544 1.56722Z" fill="#FF3232"/>
</svg>
