<?xml version="1.0" standalone="no"?>
<!DOCTYPE svg PUBLIC "-//W3C//DTD SVG 20010904//EN"
 "http://www.w3.org/TR/2001/REC-SVG-20010904/DTD/svg10.dtd">
<svg version="1.0" xmlns="http://www.w3.org/2000/svg"
 width="300.000000pt" height="300.000000pt" viewBox="0 0 300.000000 300.000000"
 preserveAspectRatio="xMidYMid meet">
<metadata>
Created by potrace 1.14, written by Peter Selinger 2001-2017
</metadata>
<g transform="translate(0.000000,300.000000) scale(0.100000,-0.100000)"
fill="#000000" stroke="none">
<path d="M1325 2994 c-239 -26 -483 -117 -690 -258 -116 -78 -293 -255 -371
-371 -405 -596 -336 -1373 166 -1875 216 -216 457 -347 760 -411 149 -32 419
-32 566 -1 143 31 242 65 371 128 148 73 266 157 388 279 263 263 410 594 431
966 19 332 -87 682 -289 955 -70 95 -226 247 -324 317 -169 120 -370 207 -572
248 -94 19 -348 32 -436 23z m643 -587 c19 -39 8 -108 -23 -141 -24 -26 -25
-26 -179 -26 l-155 0 -4 -707 c-4 -757 -5 -773 -55 -832 -23 -28 -36 -34 -92
-41 -50 -6 -73 -4 -97 7 -73 34 -140 147 -80 136 15 -3 30 3 42 17 19 21 20
41 23 716 l3 695 -28 -7 c-276 -61 -409 -216 -407 -479 0 -84 4 -110 26 -163
29 -70 84 -148 111 -155 36 -10 15 -88 -37 -136 -20 -19 -40 -26 -86 -29 -74
-5 -93 6 -153 90 -207 291 -153 715 116 915 79 59 184 107 289 134 71 19 125
23 383 29 412 9 387 11 403 -23z"/>
</g>
</svg>
