<svg width="110" height="21" viewBox="0 0 110 21" fill="none" xmlns="http://www.w3.org/2000/svg">
<path d="M0.28125 2.78906V-4.76837e-07H13.4219V2.78906H8.52344V16H5.17969V2.78906H0.28125ZM20.792 16.2344C19.5576 16.2344 18.4951 15.9844 17.6045 15.4844C16.719 14.9792 16.0367 14.2656 15.5576 13.3437C15.0784 12.4167 14.8388 11.3203 14.8388 10.0547C14.8388 8.82031 15.0784 7.73698 15.5576 6.80469C16.0367 5.8724 16.7112 5.14583 17.581 4.625C18.456 4.10417 19.4821 3.84375 20.6591 3.84375C21.4508 3.84375 22.1878 3.97135 22.8701 4.22656C23.5576 4.47656 24.1565 4.85417 24.667 5.35937C25.1826 5.86458 25.5836 6.5 25.8701 7.26562C26.1565 8.02604 26.2998 8.91667 26.2998 9.9375V10.8516H16.167V8.78906H23.167C23.167 8.3099 23.0628 7.88542 22.8545 7.51563C22.6461 7.14583 22.3571 6.85677 21.9873 6.64844C21.6227 6.4349 21.1982 6.32812 20.7138 6.32812C20.2086 6.32812 19.7607 6.44531 19.3701 6.67969C18.9847 6.90885 18.6826 7.21875 18.4638 7.60937C18.2451 7.99479 18.1331 8.42448 18.1279 8.89844V10.8594C18.1279 11.4531 18.2373 11.9661 18.456 12.3984C18.68 12.8307 18.9951 13.1641 19.4013 13.3984C19.8076 13.6328 20.2893 13.75 20.8466 13.75C21.2164 13.75 21.555 13.6979 21.8623 13.5938C22.1696 13.4896 22.4326 13.3333 22.6513 13.125C22.8701 12.9167 23.0367 12.6615 23.1513 12.3594L26.2295 12.5625C26.0732 13.3021 25.7529 13.9479 25.2685 14.5C24.7893 15.0469 24.1696 15.474 23.4091 15.7813C22.6539 16.0833 21.7815 16.2344 20.792 16.2344ZM33.3398 -4.76837e-07V16H30.0116V-4.76837e-07H33.3398ZM43.0145 16.2344C41.7802 16.2344 40.7177 15.9844 39.827 15.4844C38.9416 14.9792 38.2593 14.2656 37.7802 13.3437C37.301 12.4167 37.0614 11.3203 37.0614 10.0547C37.0614 8.82031 37.301 7.73698 37.7802 6.80469C38.2593 5.8724 38.9338 5.14583 39.8036 4.625C40.6786 4.10417 41.7046 3.84375 42.8817 3.84375C43.6734 3.84375 44.4104 3.97135 45.0927 4.22656C45.7802 4.47656 46.3791 4.85417 46.8895 5.35937C47.4052 5.86458 47.8062 6.5 48.0927 7.26562C48.3791 8.02604 48.5223 8.91667 48.5223 9.9375V10.8516H38.3895V8.78906H45.3895C45.3895 8.3099 45.2854 7.88542 45.077 7.51563C44.8687 7.14583 44.5796 6.85677 44.2098 6.64844C43.8453 6.4349 43.4208 6.32812 42.9364 6.32812C42.4312 6.32812 41.9833 6.44531 41.5927 6.67969C41.2072 6.90885 40.9052 7.21875 40.6864 7.60937C40.4677 7.99479 40.3557 8.42448 40.3505 8.89844V10.8594C40.3505 11.4531 40.4598 11.9661 40.6786 12.3984C40.9026 12.8307 41.2177 13.1641 41.6239 13.3984C42.0302 13.6328 42.5119 13.75 43.0692 13.75C43.439 13.75 43.7776 13.6979 44.0848 13.5938C44.3921 13.4896 44.6552 13.3333 44.8739 13.125C45.0927 12.9167 45.2593 12.6615 45.3739 12.3594L48.452 12.5625C48.2958 13.3021 47.9755 13.9479 47.4911 14.5C47.0119 15.0469 46.3921 15.474 45.6317 15.7813C44.8765 16.0833 44.0041 16.2344 43.0145 16.2344ZM57.6405 20.75C56.5623 20.75 55.6379 20.6016 54.867 20.3047C54.1014 20.013 53.492 19.6146 53.0389 19.1094C52.5858 18.6042 52.2915 18.0365 52.1561 17.4062L55.2342 16.9922C55.328 17.2318 55.4764 17.4557 55.6795 17.6641C55.8827 17.8724 56.1509 18.0391 56.4842 18.1641C56.8228 18.2943 57.2342 18.3594 57.7186 18.3594C58.4426 18.3594 59.0389 18.1823 59.5077 17.8281C59.9816 17.4792 60.2186 16.8932 60.2186 16.0703V13.875H60.078C59.9321 14.2083 59.7134 14.5234 59.4217 14.8203C59.1301 15.1172 58.7551 15.3594 58.2967 15.5469C57.8384 15.7344 57.2915 15.8281 56.6561 15.8281C55.7551 15.8281 54.9347 15.6198 54.1952 15.2031C53.4608 14.7812 52.8748 14.138 52.4373 13.2734C52.0051 12.4036 51.7889 11.3047 51.7889 9.97656C51.7889 8.61719 52.0103 7.48177 52.453 6.57031C52.8957 5.65885 53.4842 4.97656 54.2186 4.52344C54.9582 4.07031 55.7681 3.84375 56.6483 3.84375C57.3202 3.84375 57.8827 3.95833 58.3358 4.1875C58.7889 4.41146 59.1535 4.69271 59.4295 5.03125C59.7108 5.36458 59.9269 5.69271 60.078 6.01562H60.203V4H63.5077V16.1172C63.5077 17.138 63.2577 17.9922 62.7577 18.6797C62.2577 19.3672 61.5649 19.8828 60.6795 20.2266C59.7993 20.5755 58.7863 20.75 57.6405 20.75ZM57.7108 13.3281C58.2472 13.3281 58.7004 13.1953 59.0702 12.9297C59.4452 12.6589 59.7316 12.2734 59.9295 11.7734C60.1327 11.2682 60.2342 10.6641 60.2342 9.96094C60.2342 9.25781 60.1353 8.64844 59.9373 8.13281C59.7394 7.61198 59.453 7.20833 59.078 6.92187C58.703 6.63542 58.2472 6.49219 57.7108 6.49219C57.1639 6.49219 56.703 6.64062 56.328 6.9375C55.953 7.22917 55.6691 7.63542 55.4764 8.15625C55.2837 8.67708 55.1873 9.27865 55.1873 9.96094C55.1873 10.6536 55.2837 11.2526 55.4764 11.7578C55.6743 12.2578 55.9582 12.6458 56.328 12.9219C56.703 13.1927 57.1639 13.3281 57.7108 13.3281ZM67.6961 16V4H70.9227V6.09375H71.0477C71.2664 5.34896 71.6336 4.78646 72.1492 4.40625C72.6648 4.02083 73.2586 3.82812 73.9305 3.82812C74.0971 3.82812 74.2768 3.83854 74.4695 3.85937C74.6622 3.88021 74.8315 3.90885 74.9773 3.94531V6.89844C74.8211 6.85156 74.6049 6.8099 74.3289 6.77344C74.0529 6.73698 73.8003 6.71875 73.5711 6.71875C73.0815 6.71875 72.644 6.82552 72.2586 7.03906C71.8784 7.2474 71.5763 7.53906 71.3523 7.91406C71.1336 8.28906 71.0242 8.72135 71.0242 9.21094V16H67.6961ZM81.3162 16.2266C80.5505 16.2266 79.8683 16.0938 79.2693 15.8281C78.6703 15.5573 78.1964 15.1589 77.8474 14.6328C77.5037 14.1016 77.3318 13.4401 77.3318 12.6484C77.3318 11.9818 77.4542 11.4219 77.699 10.9687C77.9438 10.5156 78.2771 10.151 78.699 9.875C79.1209 9.59896 79.6 9.39062 80.1365 9.25C80.6781 9.10937 81.2459 9.01042 81.8396 8.95312C82.5375 8.88021 83.1 8.8125 83.5271 8.75C83.9542 8.68229 84.2641 8.58333 84.4568 8.45312C84.6495 8.32292 84.7459 8.13021 84.7459 7.875V7.82812C84.7459 7.33333 84.5896 6.95052 84.2771 6.67969C83.9698 6.40885 83.5323 6.27344 82.9646 6.27344C82.3656 6.27344 81.8891 6.40625 81.5349 6.67187C81.1808 6.93229 80.9464 7.26042 80.8318 7.65625L77.7537 7.40625C77.9099 6.67708 78.2172 6.04687 78.6755 5.51562C79.1339 4.97917 79.725 4.56771 80.449 4.28125C81.1781 3.98958 82.0219 3.84375 82.9802 3.84375C83.6469 3.84375 84.2849 3.92187 84.8943 4.07812C85.5089 4.23437 86.0531 4.47656 86.5271 4.80469C87.0063 5.13281 87.3839 5.55469 87.6599 6.07031C87.936 6.58073 88.074 7.19271 88.074 7.90625V16H84.9177V14.3359H84.824C84.6313 14.7109 84.3735 15.0417 84.0505 15.3281C83.7276 15.6094 83.3396 15.8307 82.8865 15.9922C82.4334 16.1484 81.9099 16.2266 81.3162 16.2266ZM82.2693 13.9297C82.7589 13.9297 83.1912 13.8333 83.5662 13.6406C83.9412 13.4427 84.2354 13.1771 84.449 12.8438C84.6625 12.5104 84.7693 12.1328 84.7693 11.7109V10.4375C84.6651 10.5052 84.5219 10.5677 84.3396 10.625C84.1625 10.6771 83.962 10.7266 83.738 10.7734C83.5141 10.8151 83.2901 10.8542 83.0662 10.8906C82.8422 10.9219 82.6391 10.9505 82.4568 10.9766C82.0662 11.0339 81.725 11.125 81.4334 11.25C81.1417 11.375 80.9151 11.5443 80.7537 11.7578C80.5922 11.9661 80.5115 12.2266 80.5115 12.5391C80.5115 12.9922 80.6755 13.3385 81.0037 13.5781C81.337 13.8125 81.7589 13.9297 82.2693 13.9297ZM92.196 16V4H95.3679V6.11719H95.5085C95.7585 5.41406 96.1752 4.85937 96.7585 4.45312C97.3418 4.04687 98.0398 3.84375 98.8523 3.84375C99.6752 3.84375 100.376 4.04948 100.954 4.46094C101.532 4.86719 101.917 5.41927 102.11 6.11719H102.235C102.48 5.42969 102.923 4.88021 103.563 4.46875C104.209 4.05208 104.972 3.84375 105.852 3.84375C106.972 3.84375 107.881 4.20052 108.579 4.91406C109.282 5.6224 109.634 6.6276 109.634 7.92969V16H106.313V8.58594C106.313 7.91927 106.136 7.41927 105.782 7.08594C105.428 6.7526 104.985 6.58594 104.454 6.58594C103.85 6.58594 103.378 6.77865 103.04 7.16406C102.701 7.54427 102.532 8.04687 102.532 8.67187V16H99.3054V8.51562C99.3054 7.92708 99.1361 7.45833 98.7976 7.10937C98.4642 6.76042 98.0241 6.58594 97.4773 6.58594C97.1075 6.58594 96.7741 6.67969 96.4773 6.86719C96.1856 7.04948 95.9538 7.30729 95.782 7.64062C95.6101 7.96875 95.5241 8.35417 95.5241 8.79687V16H92.196Z" fill="white"/>
</svg>
