<svg width="40" height="41" viewBox="0 0 40 41" fill="none" xmlns="http://www.w3.org/2000/svg">
<g clip-path="url(#clip0_18619_130891)">
<path d="M0 19.8992C0 10.8483 0 6.32278 2.81178 3.51099C5.62356 0.699219 10.149 0.699219 19.2 0.699219H20.8C29.851 0.699219 34.3764 0.699219 37.1882 3.51099C40 6.32278 40 10.8483 40 19.8992V21.4992C40 30.5502 40 35.0757 37.1882 37.8875C34.3764 40.6992 29.851 40.6992 20.8 40.6992H19.2C10.149 40.6992 5.62356 40.6992 2.81178 37.8875C0 35.0757 0 30.5502 0 21.4992V19.8992Z" fill="white"/>
<path fill-rule="evenodd" clip-rule="evenodd" d="M9.05313 20.3553C14.8835 17.8151 18.7714 16.1404 20.7167 15.3313C26.2709 13.0211 27.425 12.6198 28.1773 12.6066C28.3427 12.6037 28.7126 12.6447 28.9523 12.8391C29.1546 13.0033 29.2103 13.2251 29.2369 13.3807C29.2635 13.5364 29.2967 13.891 29.2703 14.1681C28.9694 17.3305 27.667 25.005 27.0044 28.5471C26.7241 30.0458 26.1721 30.5483 25.6376 30.5975C24.4762 30.7044 23.5942 29.83 22.4693 29.0926C20.7091 27.9387 19.7146 27.2204 18.006 26.0944C16.0314 24.7932 17.3114 24.078 18.4368 22.9092C18.7313 22.6033 23.8486 17.9487 23.9476 17.5265C23.96 17.4737 23.9715 17.2768 23.8546 17.1729C23.7376 17.0689 23.565 17.1045 23.4405 17.1327C23.2639 17.1728 20.4519 19.0315 15.0044 22.7087C14.2062 23.2568 13.4832 23.5238 12.8355 23.5098C12.1214 23.4944 10.7477 23.1061 9.72654 22.7741C8.47404 22.367 7.47858 22.1517 7.56526 21.4603C7.61041 21.1001 8.10637 20.7318 9.05313 20.3553Z" fill="#2E2E2E"/>
</g>
<defs>
<clipPath id="clip0_18619_130891">
<rect width="40" height="40" fill="white" transform="translate(0 0.566406)"/>
</clipPath>
</defs>
</svg>
