<svg width="50" height="34" viewBox="0 0 50 34" fill="none" xmlns="http://www.w3.org/2000/svg">
<path d="M46.6667 33.9647H3.33333C1.49306 33.9647 0 32.4716 0 30.6313V3.96468C0 2.1244 1.49306 0.631348 3.33333 0.631348H46.6667C48.5069 0.631348 50 2.1244 50 3.96468V30.6313C50 32.4716 48.5069 33.9647 46.6667 33.9647ZM24.7778 21.1341L24.2792 24.2591C25.3764 24.7286 26.6528 25.0022 27.9931 25.0022C28.1 25.0022 28.2056 25.0008 28.3111 24.9966H28.2958C28.4181 25.0036 28.5597 25.0077 28.7042 25.0077C30.2444 25.0077 31.6722 24.5244 32.8444 23.7008L32.8208 23.7161C33.8847 22.9272 34.5681 21.6758 34.5681 20.2647C34.5681 20.2577 34.5681 20.2508 34.5681 20.2438C34.5681 18.7161 33.5458 17.448 31.5306 16.4675C30.9389 16.1786 30.4333 15.8758 29.9583 15.5341L29.9903 15.5563C29.7153 15.3758 29.5319 15.0772 29.5139 14.7341V14.7313C29.5361 14.3702 29.7431 14.0619 30.0403 13.898L30.0458 13.8952C30.4375 13.6675 30.9069 13.5327 31.4097 13.5327C31.4681 13.5327 31.5264 13.5341 31.5847 13.5383H31.5764H31.6875C31.7194 13.5383 31.7569 13.5369 31.7944 13.5369C32.6889 13.5369 33.5375 13.73 34.3028 14.0758L34.2639 14.0605L34.5889 14.2341L35.0875 11.2188C34.15 10.848 33.0625 10.6327 31.925 10.6327C31.9028 10.6327 31.8792 10.6327 31.8569 10.6327H31.8611C31.7722 10.6286 31.6681 10.6258 31.5639 10.6258C30.0417 10.6258 28.6306 11.1077 27.4764 11.9272L27.4986 11.9119C26.4542 12.6563 25.7806 13.8619 25.7806 15.2258V15.2327C25.7667 16.7022 26.825 17.9716 28.9278 19.0105C29.4833 19.2536 29.9625 19.5508 30.3917 19.9077L30.3819 19.8994C30.625 20.105 30.7819 20.4063 30.7944 20.7438V20.7466V20.7494C30.7944 21.1925 30.5306 21.573 30.15 21.7438L30.1431 21.7466C29.7264 21.9661 29.2319 22.0938 28.7069 22.0938C28.6861 22.0938 28.6639 22.0938 28.6431 22.0938H28.6458C28.6153 22.0938 28.5778 22.0938 28.5417 22.0938C27.3514 22.0938 26.2236 21.83 25.2125 21.3577L25.2611 21.3786L24.7847 21.1397L24.7778 21.1341ZM38.8403 22.7188H43.4444C43.5185 23.0364 43.6634 23.7309 43.8792 24.8022H47.2222L44.3139 10.8702H41.5361C41.4875 10.8661 41.4306 10.8633 41.3722 10.8633C40.5917 10.8633 39.9236 11.3466 39.6514 12.03L39.6472 12.0425L34.3139 24.8022H38.0917L38.85 22.7202L38.8403 22.7188ZM20.6819 10.8702L18.4236 24.8022H22.0264L24.2833 10.8702H20.6819ZM6.83611 13.7133L9.76667 24.78H13.5639L19.2236 10.8702H15.4097L11.8903 20.3758L11.5208 18.4438L10.2653 12.0425C10.1389 11.3633 9.55139 10.855 8.84444 10.855C8.77222 10.855 8.7 10.8605 8.63056 10.8702L8.63889 10.8688H2.82361L2.78056 11.1508C7.25833 12.2883 10.2 14.7425 11.525 18.4425C11.0958 17.3425 10.4694 16.405 9.68333 15.6313L9.68194 15.63C8.89444 14.8216 7.94861 14.173 6.89444 13.73L6.83889 13.7091L6.83611 13.7133ZM42.8597 19.8536H39.8597C40.0625 19.3184 40.5403 18.0221 41.2931 15.9647L41.3569 15.7688C41.4153 15.6244 41.4875 15.4355 41.5792 15.205C41.6708 14.9744 41.7319 14.7855 41.7736 14.6411L42.0347 15.8341L42.8583 19.848L42.8597 19.8536Z" fill="white"/>
</svg>
