<svg width="145" height="17" viewBox="0 0 145 17" fill="none" xmlns="http://www.w3.org/2000/svg">
<path d="M13.2473 12.0073C13.2473 14.5019 10.9247 16.3083 7.65577 16.3083H0V0.824463H7.39782C10.5807 0.824463 12.8171 2.54489 12.8171 4.95351C12.8171 6.58791 11.9568 7.62015 10.6668 8.22232C12.0429 8.73845 13.2473 10.1148 13.2473 12.0073ZM3.3547 3.66319V7.01802H7.31173C8.51606 7.01802 9.29024 6.32983 9.29024 5.38362C9.29024 4.43738 8.42996 3.66319 7.31173 3.66319H3.3547ZM7.65577 13.4696C8.9462 13.4696 9.89257 12.6954 9.89257 11.5771C9.89257 10.4589 9.03229 9.68469 7.65577 9.68469H3.3547V13.4696H7.65577Z" fill="white"/>
<path d="M25.8925 16.2223L20.5593 10.1148H19.699V16.2223H16.2579V0.824463H19.699V6.75994H20.5593L25.7203 0.824463H29.7635L23.3117 8.22232L30.3655 16.2223H25.8925Z" fill="white"/>
<path d="M30.3658 8.56642C30.3658 3.92127 33.8066 0.566406 38.6236 0.566406C43.4409 0.566406 46.8817 3.92127 46.8817 8.56642C46.8817 13.2116 43.4409 16.5664 38.6236 16.5664C33.8066 16.5664 30.3658 13.2116 30.3658 8.56642ZM43.269 8.56642C43.269 5.6417 41.3763 3.66319 38.6236 3.66319C35.8709 3.66319 33.9784 5.6417 33.9784 8.56642C33.9784 11.4911 35.8709 13.4697 38.6236 13.4697C41.3763 13.4697 43.269 11.4911 43.269 8.56642Z" fill="white"/>
<path d="M60.0432 0.824463H63.484V16.2223H60.0432V10.0288H53.1613V16.2223H49.7205V0.824463H53.1613V6.93199H60.0432V0.824463Z" fill="white"/>
<path d="M70.8818 16.2223V3.92124H65.5482V0.824463H79.57V3.92124H74.2365V16.2223H70.8818Z" fill="white"/>
<path d="M94.3657 7.62018V16.2223H91.8709L91.1828 13.8137C90.4086 15.1041 88.7742 16.5664 86.2794 16.5664C83.1827 16.5664 80.9462 14.5019 80.9462 11.6632C80.9462 8.82447 83.1827 6.84599 87.742 6.84599H91.0967C90.9249 4.86748 89.8924 3.49116 88 3.49116C86.4516 3.49116 85.4195 4.35138 84.9032 5.29759L81.8065 4.78149C82.5807 2.11481 85.2473 0.566406 88.1722 0.566406C91.957 0.566406 94.3657 3.14705 94.3657 7.62018ZM91.0106 9.51267H87.8278C85.2473 9.51267 84.387 10.3729 84.387 11.4911C84.387 12.7815 85.4195 13.6417 87.1397 13.6417C89.3765 13.6417 91.0106 12.0073 91.0106 9.51267Z" fill="white"/>
<path d="M107.613 16.2223L102.28 10.1148H101.419V16.2223H97.9786V0.824463H101.419V6.75994H102.28L107.441 0.824463H111.484L105.032 8.22232L112.086 16.2223H107.613Z" fill="white"/>
<path d="M118.28 16.2223V3.92124H112.946V0.824463H126.968V3.92124H121.634V16.2223H118.28Z" fill="white"/>
<path d="M144.172 9.51267H131.785C132.129 11.9213 133.85 13.4697 136.43 13.4697C138.237 13.4697 139.613 12.6954 140.387 11.5772L143.57 12.0933C142.452 15.018 139.441 16.5664 136.172 16.5664C131.527 16.5664 128.172 13.2116 128.172 8.56642C128.172 3.92127 131.527 0.566406 136.172 0.566406C140.817 0.566406 144.172 3.92127 144.172 8.39437C144.258 8.82447 144.172 9.16859 144.172 9.51267ZM132.043 6.84599H140.559C139.957 4.95351 138.409 3.57716 136.258 3.57716C134.194 3.49116 132.559 4.86748 132.043 6.84599Z" fill="white"/>
</svg>
