<svg width="40" height="41" viewBox="0 0 40 41" fill="none" xmlns="http://www.w3.org/2000/svg">
<path d="M0 19.7664C0 10.7154 0 6.18997 2.81178 3.37818C5.62356 0.566406 10.149 0.566406 19.2 0.566406H20.8C29.851 0.566406 34.3764 0.566406 37.1882 3.37818C40 6.18997 40 10.7154 40 19.7664V21.3664C40 30.4174 40 34.9428 37.1882 37.7546C34.3764 40.5664 29.851 40.5664 20.8 40.5664H19.2C10.149 40.5664 5.62356 40.5664 2.81178 37.7546C0 34.9428 0 30.4174 0 21.3664V19.7664Z" fill="white"/>
<path d="M21.2834 29.3832C12.1667 29.3832 6.96672 23.1332 6.75008 12.7332H11.3167C11.4667 20.3665 14.8333 23.5998 17.5 24.2665V12.7332H21.8001V19.3164C24.4334 19.0331 27.1998 16.0332 28.1331 12.7332H32.4332C31.7166 16.7998 28.7166 19.7998 26.5832 21.0331C28.7166 22.0331 32.1334 24.6498 33.4334 29.3832H28.6999C27.6833 26.2165 25.1501 23.7665 21.8001 23.4331V29.3832H21.2834Z" fill="#2E2E2E"/>
</svg>
