<svg width="20" height="20" viewBox="0 0 20 20" fill="none" xmlns="http://www.w3.org/2000/svg">
<rect width="20" height="20" rx="5" fill="#7200CC"/>
<path d="M10.9705 5.16797L10.7701 12.2088H9.22929L9.02891 5.16797H10.9705ZM8.97363 14.3784C8.97363 14.1067 9.06576 13.8787 9.25002 13.6944C9.43888 13.5055 9.69223 13.4111 10.0101 13.4111C10.3279 13.4111 10.579 13.5055 10.7632 13.6944C10.9521 13.8787 11.0465 14.1067 11.0465 14.3784C11.0465 14.6456 10.9521 14.8713 10.7632 15.0556C10.579 15.2398 10.3279 15.332 10.0101 15.332C9.69223 15.332 9.43888 15.2398 9.25002 15.0556C9.06576 14.8713 8.97363 14.6456 8.97363 14.3784Z" fill="#D3D3D3"/>
</svg>
